<?xml version="1.0" encoding="utf-8"?>
<!-- Generator: Adobe Illustrator 27.2.0, SVG Export Plug-In . SVG Version: 6.00 Build 0)  -->
<svg version="1.1" id="Слой_1" xmlns="http://www.w3.org/2000/svg" xmlns:xlink="http://www.w3.org/1999/xlink" x="0px" y="0px"
	 viewBox="0 0 1000 1000" style="enable-background:new 0 0 1000 1000;" xml:space="preserve">
<style type="text/css">
	.st0{display:none;}
	.st1{display:inline;fill:#FFFFFF;}
	.st2{fill:#666666;}
</style>
<rect class="st0" width="1000" height="1000"/>
<g class="st0">
	<path class="st1" d="M643.2,561h-92.6c-13.5,0-24.5,11-24.5,24.5V829c0,17.7,14.3,32,32,32h85.8c13.2,0,23.9-10.7,23.9-23.9V585.5
		C667.8,572,656.8,561,643.2,561z"/>
	<path class="st1" d="M433.2,561h-92.6c-13.5,0-24.5,11-24.5,24.5v92.6c0,13.5,11,24.5,24.5,24.5h92.6c13.5,0,24.5-11,24.5-24.5
		v-92.6C457.8,572,446.8,561,433.2,561z"/>
	<path class="st1" d="M769,0H231C103.4,0,0,103.4,0,231v538c0,127.6,103.4,231,231,231h538c127.6,0,231-103.4,231-231V231
		C1000,103.4,896.6,0,769,0z M806.9,500.3H781v259.9c0,78.3-73.7,141.8-164.6,141.8H382.6C291.7,902,218,838.5,218,760.1V500.3
		h-25.8c-68,0-100.6-71.9-50.6-111.6l307.3-244.6c28.6-22.8,72.7-22.8,101.3,0l307.3,244.6C907.5,428.4,874.9,500.3,806.9,500.3z"/>
</g>
<g class="st0">
	<path class="st1" d="M763,373.2H236.1c-14.1,0-25.6,11.5-25.6,25.6l0,0c0,14.1,11.4,25.6,25.6,25.6H763c14.1,0,25.6-11.5,25.6-25.6
		l0,0C788.6,384.7,777.1,373.2,763,373.2z"/>
	<path class="st1" d="M763,473.1H236.1c-14.1,0-25.6,11.5-25.6,25.6l0,0c0,14.1,11.4,25.6,25.6,25.6H763c14.1,0,25.6-11.5,25.6-25.6
		l0,0C788.6,484.6,777.1,473.1,763,473.1z"/>
	<path class="st1" d="M763,565.9H236.1c-14.1,0-25.6,11.5-25.6,25.6l0,0c0,14.1,11.4,25.6,25.6,25.6H763c14.1,0,25.6-11.5,25.6-25.6
		l0,0C788.6,577.4,777.1,565.9,763,565.9z"/>
	<path class="st1" d="M763,665.8H236.1c-14.1,0-25.6,11.5-25.6,25.6l0,0c0,14.1,11.4,25.6,25.6,25.6H763c14.1,0,25.6-11.5,25.6-25.6
		l0,0C788.6,677.3,777.1,665.8,763,665.8z"/>
	<path class="st1" d="M763,765.8H236.1c-14.1,0-25.6,11.5-25.6,25.6l0,0c0,14.1,11.4,25.6,25.6,25.6H763c14.1,0,25.6-11.5,25.6-25.6
		l0,0C788.6,777.2,777.1,765.8,763,765.8z"/>
	<path class="st1" d="M763,273.3H236.1c-14.1,0-25.6,11.5-25.6,25.6l0,0c0,14.1,11.4,25.6,25.6,25.6H763c14.1,0,25.6-11.5,25.6-25.6
		l0,0C788.6,284.8,777.1,273.3,763,273.3z"/>
	<path class="st1" d="M771.7,0H228.3C102.2,0,0,102.2,0,228.3v543.3C0,897.8,102.2,1000,228.3,1000h543.3
		c126.1,0,228.3-102.2,228.3-228.3V228.3C1000,102.2,897.8,0,771.7,0z M855.2,805.7c0,62-50.3,112.3-112.3,112.3H256.2
		c-62,0-112.3-50.3-112.3-112.3V195.3c0-62,50.3-112.3,112.3-112.3h486.6c62,0,112.3,50.3,112.3,112.3L855.2,805.7L855.2,805.7z"/>
	<path class="st1" d="M763,173.4H236.1c-14.1,0-25.6,11.4-25.6,25.6l0,0c0,14.1,11.4,25.6,25.6,25.6H763c14.1,0,25.6-11.4,25.6-25.6
		l0,0C788.6,184.9,777.1,173.4,763,173.4z"/>
</g>
<g class="st0">
	<path class="st1" d="M500,435L500,435c-45.8,0-83,37.2-83,83v224c0,45.8,37.2,83,83,83l0,0c45.8,0,83-37.2,83-83V518
		C583,472.2,545.8,435,500,435z"/>
	<path class="st1" d="M500,222L500,222c-45.8,0-83,37.2-83,83l0,0c0,45.8,37.2,83,83,83l0,0c45.8,0,83-37.2,83-83l0,0
		C583,259.2,545.8,222,500,222z"/>
	<path class="st1" d="M771.7,0H228.3C102.2,0,0,102.2,0,228.3v543.3C0,897.8,102.2,1000,228.3,1000h543.3
		c126.1,0,228.3-102.2,228.3-228.3V228.3C1000,102.2,897.8,0,771.7,0z M905,523.5C905,733.6,734.6,904,524.5,904h-48
		C266.4,904,96,733.6,96,523.5v-48C96,265.4,266.4,95,476.5,95h48C734.6,95,905,265.4,905,475.5V523.5z"/>
</g>
<path class="st2" d="M771.7,0H228.3C102.2,0,0,102.2,0,228.3v543.3C0,897.8,102.2,1000,228.3,1000h543.3
	c126.1,0,228.3-102.2,228.3-228.3V228.3C1000,102.2,897.8,0,771.7,0z M682,836C3,836,199,310,199,310c0-80.1,64.9-145,145-145
	s145,64.9,145,145s-64.9,145-145,145c-1.1,0-2.3,0-3.4,0c10.6,148,65.7,205,197.7,216.4C547.9,600.6,608.6,546,682,546
	c80.1,0,145,64.9,145,145S762.1,836,682,836z"/>
</svg>
