<?xml version="1.0" encoding="utf-8"?>
<!-- Generator: Adobe Illustrator 27.2.0, SVG Export Plug-In . SVG Version: 6.00 Build 0)  -->
<svg version="1.1" id="Слой_1" xmlns="http://www.w3.org/2000/svg" xmlns:xlink="http://www.w3.org/1999/xlink" x="0px" y="0px"
	 viewBox="0 0 600 600" style="enable-background:new 0 0 600 600;" xml:space="preserve">
<style type="text/css">
	.st0{fill:#FFFFFF;}
	.st1{fill:#666666;}
</style>
<g id="_Слой_3">
	<g>
		<path class="st0" d="M62,590c-28,0-50.7-22.7-50.7-50.7V62.1c0-28,22.7-50.7,50.7-50.7h477.2c28,0,50.7,22.7,50.7,50.7v477.2
			c0,28-22.7,50.7-50.7,50.7H62z"/>
		<path class="st1" d="M539.2,21.4c22.4,0,40.7,18.3,40.7,40.7v477.2c0,22.4-18.3,40.7-40.7,40.7H62c-22.4,0-40.7-18.3-40.7-40.7
			V62.1c0-10.9,4.2-21.1,11.9-28.8c7.7-7.7,17.9-11.9,28.8-11.9H539.2 M539.2,1.4H62C28.4,1.4,1.3,28.5,1.3,62.1v477.2
			C1.3,572.9,28.6,600,62,600h477.2c33.6,0,60.7-27.3,60.7-60.7V62.1C599.9,28.5,572.6,1.4,539.2,1.4L539.2,1.4z"/>
	</g>
</g>
<g id="_Слой_8">
	<path class="st1" d="M489,508.9H82.6c-21.1,0-34.6-27.9-24.9-51.3L109.1,336c4.8-11.5,14.4-18.7,24.9-18.7h406.4
		c21.1,0,34.6,27.9,24.9,51.3l-51.4,121.6C508.8,501.7,499.2,508.9,489,508.9z"/>
	<path class="st0" d="M489,413.1H82.6c-21.1,0-34.6-27.9-24.9-51.3l51.4-121.6c4.8-11.5,14.4-18.7,24.9-18.7h406.2
		c21.1,0,34.6,27.9,24.9,51.3l-51.4,121.6C508.8,406.1,499.2,413.1,489,413.1L489,413.1z"/>
	<path class="st1" d="M480.4,398.9H74c-21.1,0-34.6-27.9-24.9-51.3L100.6,226c4.8-11.5,14.4-18.7,24.9-18.7h406.4
		c21.1,0,34.6,27.9,24.9,51.3l-51.4,121.6C500.3,391.7,490.7,398.9,480.4,398.9z"/>
	<path class="st0" d="M480.4,303.5H74c-21.1,0-34.6-27.9-24.9-51.3l51.4-121.6c4.8-11.5,14.4-18.7,24.9-18.7h406.2
		c21.1,0,34.6,27.9,24.9,51.3l-51.4,121.6C500.3,296.3,490.7,303.5,480.4,303.5L480.4,303.5z"/>
	<path class="st1" d="M467.5,285.5H61.1c-21.1,0-34.6-27.9-24.9-51.3l51.4-121.6c4.8-11.5,14.4-18.7,24.9-18.7H519
		c21.1,0,34.6,27.9,24.9,51.3l-51.4,121.6C487.6,278.3,478,285.5,467.5,285.5z"/>
</g>
</svg>
