<?xml version="1.0" encoding="utf-8"?>
<!-- Generator: Adobe Illustrator 27.2.0, SVG Export Plug-In . SVG Version: 6.00 Build 0)  -->
<svg version="1.1" id="Слой_1" xmlns="http://www.w3.org/2000/svg" xmlns:xlink="http://www.w3.org/1999/xlink" x="0px" y="0px"
	 viewBox="0 0 600 600" style="enable-background:new 0 0 600 600;" xml:space="preserve">
<style type="text/css">
	.st0{fill:#FFFFFF;}
	.st1{fill:#666666;}
	.st2{fill:none;stroke:#666666;stroke-width:30;stroke-linecap:round;stroke-miterlimit:10;}
</style>
<g id="_Слой_3">
	<g>
		<path class="st0" d="M60.6,589.9c-27.9,0-50.6-22.7-50.6-50.7V60.8C10,32.8,32.8,10,60.8,10h478.3c28.1,0,50.9,22.8,50.9,50.8
			v478.3c0,28-22.8,50.8-50.8,50.8H60.6z"/>
		<path class="st1" d="M539.1,20c22.6,0,40.9,18.3,40.9,40.8v478.3c0,22.5-18.3,40.8-40.8,40.8H60.8l-0.1,0
			c-22.4,0-40.6-18.3-40.6-40.7V60.8C20,38.3,38.3,20,60.8,20H539.1 M539.1,0H60.8C27.2,0,0,27.2,0,60.8v478.4
			c0,33.5,27.2,60.7,60.6,60.7c0.1,0,0.1,0,0.2,0h478.4c33.6,0,60.8-27.3,60.8-60.8V60.8C600,27.2,572.7,0,539.1,0L539.1,0z"/>
	</g>
</g>
<g id="_Слой_4">
	<path class="st2" d="M80.8,429.7l99.3-248.2c1.4-3.4,6.2-3.3,7.4,0.2l92.3,248"/>
	<line class="st2" x1="134.2" y1="312.8" x2="230.3" y2="312.6"/>
	<path class="st2" d="M339.8,429.7V171.9c0,0,98.5-13.7,98.5,68.7S339.8,313,339.8,313"/>
	<line class="st2" x1="500.1" y1="175.3" x2="500.1" y2="433.1"/>
</g>
</svg>
