<?xml version="1.0" encoding="utf-8"?>
<!-- Generator: Adobe Illustrator 27.2.0, SVG Export Plug-In . SVG Version: 6.00 Build 0)  -->
<svg version="1.1" id="Слой_1" xmlns="http://www.w3.org/2000/svg" xmlns:xlink="http://www.w3.org/1999/xlink" x="0px" y="0px"
	 viewBox="0 0 600 600" style="enable-background:new 0 0 600 600;" xml:space="preserve">
<style type="text/css">
	.st0{fill:#FFFFFF;}
	.st1{fill:#666666;}
	.st2{fill:none;stroke:#666666;stroke-width:30;stroke-miterlimit:10;}
</style>
<g id="_Слой_3">
	<g>
		<path class="st0" d="M60.6,589.9c-27.9,0-50.6-22.7-50.6-50.7V60.8C10,32.8,32.8,10,60.8,10h478.3c28.1,0,50.9,22.8,50.9,50.8
			v478.3c0,28-22.8,50.8-50.8,50.8H60.6z"/>
		<path class="st1" d="M539.1,20c22.6,0,40.9,18.3,40.9,40.8v478.3c0,22.5-18.3,40.8-40.8,40.8H60.8l-0.1,0
			c-22.4,0-40.6-18.3-40.6-40.7V60.8C20,38.3,38.3,20,60.8,20H539.1 M539.1,0H60.8C27.2,0,0,27.2,0,60.8v478.4
			c0,33.5,27.2,60.7,60.6,60.7c0.1,0,0.1,0,0.2,0h478.4c33.6,0,60.8-27.3,60.8-60.8V60.8C600,27.2,572.7,0,539.1,0L539.1,0z"/>
	</g>
</g>
<g id="_Слой_9">
	<g>
		<path class="st1" d="M127.2,241.5h346.5c14.1,0,25.6,11.5,25.6,25.6V450c0,40-32.5,72.5-72.5,72.5H173.9
			c-40,0-72.5-32.5-72.5-72.5V267.3C101.4,253,112.9,241.5,127.2,241.5L127.2,241.5z"/>
		<path class="st2" d="M227.6,97.5h148.8c30.4,0,55.2,24.7,55.2,55.2V277h-259V152.4C172.6,122.2,197.1,97.5,227.6,97.5L227.6,97.5z
			"/>
		<circle class="st0" cx="306.3" cy="97.5" r="30.4"/>
		<circle class="st1" cx="305.6" cy="98.1" r="22.7"/>
	</g>
	<g>
		<circle class="st0" cx="306.8" cy="339.4" r="37"/>
		<path class="st0" d="M296.3,382.8h21.5c30.4,0,55.2,24.7,55.2,55.2v37.1H241.1v-37.3C241.1,407.5,265.9,382.8,296.3,382.8
			L296.3,382.8z"/>
	</g>
</g>
</svg>
