<?xml version="1.0" encoding="utf-8"?>
<!-- Generator: Adobe Illustrator 27.2.0, SVG Export Plug-In . SVG Version: 6.00 Build 0)  -->
<svg version="1.1" id="calendarb" xmlns="http://www.w3.org/2000/svg" xmlns:xlink="http://www.w3.org/1999/xlink" x="0px" y="0px"
	 viewBox="0 0 600 600" style="enable-background:new 0 0 600 600;" xml:space="preserve">
<style type="text/css">
	.st0{fill:none;stroke:#666666;stroke-width:20;stroke-miterlimit:10;}
	.st1{fill:#FFFFFF;stroke:#666666;stroke-width:10;stroke-miterlimit:10;}
</style>
<g>
	<path class="st0" d="M180.1,148H420c17.7,0,32,14.3,32,32.1V420c0,17.7-14.3,32-32,32H180.1c-17.7,0-32.1-14.3-32.1-32V180.1
		C148,162.3,162.3,148,180.1,148z"/>
	<line class="st0" x1="148" y1="216" x2="452" y2="216"/>
	<line class="st0" x1="176.1" y1="148" x2="176.1" y2="216"/>
	<line class="st0" x1="426.1" y1="146.2" x2="426.1" y2="214.2"/>
	<line class="st0" x1="226.1" y1="146.2" x2="226.1" y2="214.2"/>
	<line class="st0" x1="276.1" y1="146.2" x2="276.1" y2="214.2"/>
	<line class="st0" x1="326.1" y1="146.2" x2="326.1" y2="214.2"/>
	<line class="st0" x1="376.1" y1="146.2" x2="376.1" y2="214.2"/>
</g>
<path class="st1" d="M189,246h30c5.5,0,10,4.5,10,10v30c0,5.5-4.5,10-10,10h-30c-5.5,0-10-4.5-10-10v-30
	C179,250.5,183.5,246,189,246z"/>
<path class="st1" d="M253,246h30c5.5,0,10,4.5,10,10v30c0,5.5-4.5,10-10,10h-30c-5.5,0-10-4.5-10-10v-30
	C243,250.5,247.5,246,253,246z"/>
<path class="st1" d="M316,246h30c5.5,0,10,4.5,10,10v30c0,5.5-4.5,10-10,10h-30c-5.5,0-10-4.5-10-10v-30
	C306,250.5,310.5,246,316,246z"/>
<path class="st1" d="M381,246h30c5.5,0,10,4.5,10,10v30c0,5.5-4.5,10-10,10h-30c-5.5,0-10-4.5-10-10v-30
	C371,250.5,375.5,246,381,246z"/>
<path class="st1" d="M189,308h30c5.5,0,10,4.5,10,10v30c0,5.5-4.5,10-10,10h-30c-5.5,0-10-4.5-10-10v-30
	C179,312.5,183.5,308,189,308z"/>
<path class="st1" d="M253,308h30c5.5,0,10,4.5,10,10v30c0,5.5-4.5,10-10,10h-30c-5.5,0-10-4.5-10-10v-30
	C243,312.5,247.5,308,253,308z"/>
<path class="st1" d="M316,308h30c5.5,0,10,4.5,10,10v30c0,5.5-4.5,10-10,10h-30c-5.5,0-10-4.5-10-10v-30
	C306,312.5,310.5,308,316,308z"/>
<path class="st1" d="M381,308h30c5.5,0,10,4.5,10,10v30c0,5.5-4.5,10-10,10h-30c-5.5,0-10-4.5-10-10v-30
	C371,312.5,375.5,308,381,308z"/>
<path class="st1" d="M189,370h30c5.5,0,10,4.5,10,10v30c0,5.5-4.5,10-10,10h-30c-5.5,0-10-4.5-10-10v-30
	C179,374.5,183.5,370,189,370z"/>
<path class="st1" d="M253,370h30c5.5,0,10,4.5,10,10v30c0,5.5-4.5,10-10,10h-30c-5.5,0-10-4.5-10-10v-30
	C243,374.5,247.5,370,253,370z"/>
<path class="st1" d="M316,370h30c5.5,0,10,4.5,10,10v30c0,5.5-4.5,10-10,10h-30c-5.5,0-10-4.5-10-10v-30
	C306,374.5,310.5,370,316,370z"/>
<path class="st1" d="M381,370h30c5.5,0,10,4.5,10,10v30c0,5.5-4.5,10-10,10h-30c-5.5,0-10-4.5-10-10v-30
	C371,374.5,375.5,370,381,370z"/>
</svg>
