<?xml version="1.0" encoding="utf-8"?>
<!-- Generator: Adobe Illustrator 27.2.0, SVG Export Plug-In . SVG Version: 6.00 Build 0)  -->
<svg version="1.1" id="y4astniki" xmlns="http://www.w3.org/2000/svg" xmlns:xlink="http://www.w3.org/1999/xlink" x="0px" y="0px"
	 viewBox="0 0 600 600" style="enable-background:new 0 0 600 600;" xml:space="preserve">
<style type="text/css">
	.st0{fill:#666666;}
</style>
<circle class="st0" cx="186" cy="347.2" r="58.2"/>
<path class="st0" d="M101.6,403.9c3.1-2.9,6.7-5.4,10.8-7.2c7.2-3.2,15.8-1.2,20.8,5c7.2,8.9,22.9,21.8,52.9,21.8
	c32.4,0,48.1-15.1,54.5-23.9c3.3-4.5,9-6.4,14.3-4.8c10.1,3.1,28.1,12.5,28.1,43.2c0,0-8.1,80.9-100.7,80.7
	c-43.4-0.1-84.5-27.5-92-45C79.8,449,82,422.1,101.6,403.9L101.6,403.9z"/>
<circle class="st0" cx="301.3" cy="130.1" r="58.2"/>
<circle class="st0" cx="418.3" cy="347.1" r="58.2"/>
<path class="st0" d="M333.9,403.8c3.1-2.9,6.7-5.4,10.8-7.2c7.2-3.2,15.8-1.2,20.8,5c7.2,8.9,22.9,21.8,52.9,21.8
	c32.4,0,48.1-15.1,54.5-23.9c3.3-4.5,9-6.4,14.3-4.8c10.1,3.1,28.1,12.5,28.1,43.2c0,0-8.1,80.9-100.7,80.7
	c-43.4-0.1-84.5-27.5-92-45C312,448.9,314.3,422,333.9,403.8L333.9,403.8z"/>
<path class="st0" d="M216.9,186.8c3.1-2.9,6.7-5.4,10.8-7.2c7.2-3.2,15.8-1.2,20.8,5c7.2,8.9,22.9,21.8,52.9,21.8
	c32.4,0,48.1-15.1,54.5-23.9c3.3-4.5,9-6.4,14.3-4.8c10.1,3.1,28.1,12.4,28.1,43.2c0,0-8.1,80.9-100.7,80.7
	c-43.4-0.1-84.5-27.5-92-45C195,231.9,197.3,204.9,216.9,186.8L216.9,186.8z"/>
</svg>
