<?xml version="1.0" encoding="utf-8"?>
<!-- Generator: Adobe Illustrator 27.2.0, SVG Export Plug-In . SVG Version: 6.00 Build 0)  -->
<svg version="1.1" id="_Слой_1" xmlns="http://www.w3.org/2000/svg" xmlns:xlink="http://www.w3.org/1999/xlink" x="0px"
	 y="0px" viewBox="0 0 400 400" style="enable-background:new 0 0 400 400;" xml:space="preserve">
<style type="text/css">
	.st0{fill:#FFFFFF;}
	.st1{fill:#666666;}
	.st2{fill:none;stroke:#666666;stroke-width:40;stroke-linecap:round;stroke-miterlimit:10;}
</style>
<g>
	<path class="st0" d="M35,390c-13.8,0-25-11.2-25-25V35c0-13.8,11.2-25,25-25h330c13.8,0,25,11.2,25,25v330c0,13.8-11.2,25-25,25H35
		z"/>
	<path class="st1" d="M365,20c8.3,0,15,6.7,15,15v330c0,8.3-6.7,15-15,15H35c-8.3,0-15-6.7-15-15V35c0-8.3,6.7-15,15-15H365 M365,0
		H35C15.7,0,0,15.7,0,35v330c0,19.3,15.7,35,35,35h330c19.3,0,35-15.7,35-35V35C400,15.7,384.3,0,365,0L365,0z"/>
</g>
<g>
	<path class="st2" d="M205,80l-0.2,189.6c0,15.5-2.7,10.4-6,7.5l-72.4-66.6"/>
	<line class="st2" x1="203.8" y1="282.2" x2="279.4" y2="210.8"/>
	<line class="st2" x1="79" y1="320" x2="330.6" y2="320"/>
</g>
</svg>
