<?xml version="1.0" encoding="utf-8"?>
<!-- Generator: Adobe Illustrator 27.2.0, SVG Export Plug-In . SVG Version: 6.00 Build 0)  -->
<svg version="1.1" id="gosudarstvo" xmlns="http://www.w3.org/2000/svg" xmlns:xlink="http://www.w3.org/1999/xlink" x="0px"
	 y="0px" viewBox="0 0 600 600" style="enable-background:new 0 0 600 600;" xml:space="preserve">
<style type="text/css">
	.st0{fill:none;stroke:#666666;stroke-width:20;stroke-miterlimit:10;}
</style>
<circle class="st0" cx="300" cy="304" r="205"/>
<path class="st0" d="M300,509c-340-211,0-410,0-410"/>
<path class="st0" d="M306.4,509c308.4-225,0-409.9,0-409.9"/>
<path class="st0" d="M313.5,103.7c0,0,152.5,176,0,394.7"/>
<path class="st0" d="M306.4,108.1v377.8c0,5.7-7.1,8.4-10.9,4c-161.3-186.8,10.9-386.2,10.9-386.2"/>
<path class="st0" d="M164.6,150.1c0,0,130.8,72.4,262.6-6.8"/>
<path class="st0" d="M128.4,191.9c0,0,158.9,103.9,343.2,0"/>
<path class="st0" d="M100.9,255c0,0,185.3,96,398.2,0"/>
<path class="st0" d="M95,319.7c0,0,161,95.7,410,0"/>
<path class="st0" d="M113.7,389.7c0,0,147.8,74.7,372.5,0"/>
<path class="st0" d="M145.7,439c0,0,115.9,66,308.6,0"/>
</svg>
