<?xml version="1.0" encoding="utf-8"?>
<!-- Generator: Adobe Illustrator 27.2.0, SVG Export Plug-In . SVG Version: 6.00 Build 0)  -->
<svg version="1.1" id="internet" xmlns="http://www.w3.org/2000/svg" xmlns:xlink="http://www.w3.org/1999/xlink" x="0px" y="0px"
	 viewBox="0 0 600 600" style="enable-background:new 0 0 600 600;" xml:space="preserve">
<style type="text/css">
	.st0{fill:none;stroke:#666666;stroke-width:20;stroke-linecap:round;stroke-miterlimit:10;}
</style>
<path class="st0" d="M196.6,221.5c7.4,36.5-29.7,71.1-35.2,75.9c-0.5,0.4-0.9,0.9-1.4,1.3l-43.1,43.1c-57,57,0,116.4,0,116.4
	s58,60.2,118.2,0l38.8-38.9c0.4-0.4,0.8-0.8,1.2-1.2c5-5.5,45.6-48.6,82.7-38.2c20.4,5.7,41-8.9,42.6-30c1.9-25.1-9.5-61.8-58.7-111
	c-54.2-54.2-93.2-62.5-118.3-57.7C204.8,184.8,192.8,202.9,196.6,221.5L196.6,221.5z"/>
<line class="st0" x1="300" y1="159.7" x2="300" y2="60.1"/>
<line class="st0" x1="363" y1="196" x2="449" y2="110"/>
<line class="st0" x1="400.6" y1="253" x2="497" y2="253"/>
<path class="st0" d="M136,392c0,0,14,57.5,57.5,57.5"/>
<path class="st0" d="M168.4,366.2c0,0,14,57.5,57.5,57.5"/>
<path class="st0" d="M198.4,336.2c0,0,14,57.5,57.5,57.5"/>
<path class="st0" d="M240.2,466.6l67.9,62.7c3.4,3.1,8.5,3.1,11.9,0.1l15.9-14.2c10.3-9.2,10.1-24.9-0.4-33.8l-47.5-40.6
	c-9.3-7.9-15.2-17.1-24.1-8.8l-23.8,24.2C237.1,459,237.1,463.7,240.2,466.6L240.2,466.6z"/>
</svg>
