<?xml version="1.0" encoding="utf-8"?>
<!-- Generator: Adobe Illustrator 27.2.0, SVG Export Plug-In . SVG Version: 6.00 Build 0)  -->
<svg version="1.1" id="Слой_1" xmlns="http://www.w3.org/2000/svg" xmlns:xlink="http://www.w3.org/1999/xlink" x="0px" y="0px"
	 viewBox="0 0 447 454" style="enable-background:new 0 0 447 454;" xml:space="preserve">
<style type="text/css">
	.st0{fill-rule:evenodd;clip-rule:evenodd;fill:#002D00;}
	.st1{display:none;}
	.st2{display:inline;fill:#00C900;}
	.st3{display:inline;fill:#005E00;}
	.st4{fill-rule:evenodd;clip-rule:evenodd;fill:#005A00;}
	.st5{fill:#00B200;}
</style>
<ellipse class="st0" cx="223.1" cy="227" rx="223.1" ry="227"/>
<g class="st1">
	<path class="st2" d="M101.7,205.1c9-9,9-23.7,0-32.7s-23.6-9-32.7,0c-9,9-9,23.7,0,32.7C78.1,214.1,92.7,214.1,101.7,205.1z"/>
	<path class="st2" d="M226.7,205.2c9-9,9-23.7,0-32.7s-23.6-9-32.7,0c-9,9-9,23.7,0,32.7C203.1,214.3,217.7,214.3,226.7,205.2z"/>
	<path class="st2" d="M351.7,204.9c9-9,9-23.7,0-32.7s-23.6-9-32.7,0c-9,9-9,23.7,0,32.7S342.6,213.9,351.7,204.9z"/>
	<path class="st3" d="M96.3,199.8c6-6,6-15.8,0-21.9c-6-6-15.8-6-21.8,0s-6,15.8,0,21.9C80.5,205.8,90.3,205.8,96.3,199.8z"/>
	<path class="st3" d="M221.3,199.7c6-6,6-15.8,0-21.9c-6-6-15.8-6-21.8,0s-6,15.8,0,21.9C205.5,205.7,215.3,205.7,221.3,199.7z"/>
	<path class="st3" d="M346.3,199.8c6-6,6-15.8,0-21.9c-6-6-15.8-6-21.8,0s-6,15.8,0,21.9C330.4,205.8,340.2,205.8,346.3,199.8z"/>
</g>
<path class="st4" d="M82.8,403.5L284.5,8.6c0,0,49.9,17,59.8,27.7L137.5,436.7C137.5,436.7,105.5,422.9,82.8,403.5z"/>
<path class="st4" d="M139.6,226.3c0,0-2.9,58-69.2,58c-27.7,0-32.8-21.5-32.8-21.5S67.7,258,70.4,227"/>
<g>
	<path class="st5" d="M0.2,217.6C1.4,160,27.1,95.2,79.7,69.1c21.8-10.6,46.9-13.9,70.4-8c58.3,15.4,89.9,76.6,107.4,131.7
		c1.8,5.2,3.5,10,4.7,14.9c2.1,6.8,4,14.3,5.5,20.8c6,24.3,9.9,48.7,30.4,60.9c11.9,7.3,32.9,10,48.6,9.3
		c50.2-0.5,82.5-33,98.5-81.9c6.1,33.1-3.4,68.9-24.5,94.4c-18.4,22.5-45.2,36.2-72.6,41.8c-59.9,13.4-112.2-7.7-136.5-69.2
		c-7-17.2-10.3-34.1-15.2-51.2c-0.8-2.5-2.1-6.9-2.3-8.2c-10.4-31.8-21-67.5-43.8-91.4c-10.2-10.7-23.4-16.7-37.7-16.6
		C61.6,115.7,23.2,175.3,0.2,217.6L0.2,217.6z"/>
</g>
<path class="st5" d="M129.5,252c13.5-14.3,13.5-37.4,0-51.5c-13.5-14.3-35.4-14.3-48.9,0C67,214.7,67,237.8,80.6,252
	C94.1,266.2,116.1,266.2,129.5,252z"/>
<path class="st4" d="M304,226.3c0,0,2.9-58,69.2-58c27.7,0,32.8,21.5,32.8,21.5s-30.1,4.8-32.8,35.8"/>
<path class="st5" d="M314.2,200.4c-13.5,14.3-13.5,37.4,0,51.5c13.5,14.3,35.4,14.3,48.9,0c13.5-14.3,13.5-37.4,0-51.5
	C349.6,186.2,327.6,186.2,314.2,200.4z"/>
</svg>
