<?xml version="1.0" encoding="utf-8"?>
<!-- Generator: Adobe Illustrator 27.2.0, SVG Export Plug-In . SVG Version: 6.00 Build 0)  -->
<svg version="1.1" id="Слой_1" xmlns="http://www.w3.org/2000/svg" xmlns:xlink="http://www.w3.org/1999/xlink" x="0px" y="0px"
	 viewBox="0 0 447 454" style="enable-background:new 0 0 447 454;" xml:space="preserve">
<style type="text/css">
	.st0{fill-rule:evenodd;clip-rule:evenodd;fill:#002D00;}
	.st1{fill-rule:evenodd;clip-rule:evenodd;fill:#00C900;}
	.st2{fill-rule:evenodd;clip-rule:evenodd;fill:#005E00;}
	.st3{fill:#005E00;}
	.st4{fill:#00C900;}
	.st5{display:none;}
	.st6{display:inline;fill:#00C900;}
	.st7{display:inline;fill:#005E00;}
	.st8{fill-rule:evenodd;clip-rule:evenodd;fill:#005A00;}
	.st9{fill:#00B200;}
	.st10{fill:#008000;}
	.st11{fill:#004200;}
</style>
<ellipse class="st0" cx="223.5" cy="240.8" rx="191.1" ry="184.6"/>
<polygon class="st1" points="-1206.9,365.6 -1259.4,365.6 -1200.8,63.4 -1142.3,63.4 "/>
<path class="st1" d="M-1364.2,195.3c-32.1,3.5-23,29.3-42.1,20.9c8.3,17.4,26.7,23.4,43,23.2L-1364.2,195.3z"/>
<path class="st1" d="M-1452.4,239.3c32.5-3.7,23.3-30.8,42.6-21.9c-8.4-18.3-27-24.5-43.5-24.3L-1452.4,239.3z"/>
<path class="st2" d="M-1744,24.1c-49.9,87.1-48.3,199,13.4,286c84.5,119.1,250.5,147.3,369.6,62.7c10.2-7.2,19.7-15.1,28.6-23.5
	c-123.2,83.7-292.2,53.6-378.7-68.4C-1766.1,203.5-1775.2,107-1744,24.1z"/>
<path class="st2" d="M-1602.9-31.9c-65,61.2-92.5,156.9-62.5,246.9c41.2,123.3,175.2,190.3,298.4,149.1c10.5-3.6,20.7-7.8,30.4-12.6
	c-126.5,39.3-262.6-30-304.7-156.3C-1668.1,115.1-1650.9,30.6-1602.9-31.9z"/>
<path class="st2" d="M-1442.2,20.6c-59.6,29.2-100.2,91.2-98.7,161.8c2.2,96.7,82.7,173.8,179.3,171.7c8.3-0.2,16.4-0.9,24.4-2.3
	c-98.6,0.2-180.1-79.1-182.3-178.2C-1520.9,110.8-1490,54.5-1442.2,20.6z"/>
<path class="st3" d="M-1350.2,233.8c9-9,9-23.7,0-32.7c-9-9-23.6-9-32.7,0c-9,9-9,23.7,0,32.7
	C-1373.9,242.9-1359.3,242.9-1350.2,233.8z"/>
<path class="st3" d="M-1436.6,232.5c9-9,9-23.7,0-32.7c-9-9-23.6-9-32.7,0c-9,9-9,23.7,0,32.7
	C-1460.2,241.5-1445.6,241.5-1436.6,232.5z"/>
<path class="st1" d="M-1431.3,169.1c3.7,32.9,30.7,23.6,21.8,43.2c18.2-8.5,24.4-27.3,24.2-44L-1431.3,169.1z"/>
<path class="st1" d="M-1385.4,261.2c-3.7-32.5-30.7-23.3-21.8-42.7c-18.3,8.4-24.5,27-24.3,43.5L-1385.4,261.2z"/>
<path class="st3" d="M-1391.8,187.7c9-9,9-23.7,0-32.7c-9-9-23.6-9-32.7,0c-9,9-9,23.7,0,32.7
	C-1415.5,196.8-1400.9,196.8-1391.8,187.7z"/>
<path class="st3" d="M-1392.7,276.4c9-9,9-23.7,0-32.7c-9-9-23.6-9-32.7,0c-9,9-9,23.7,0,32.7
	C-1416.4,285.4-1401.8,285.4-1392.7,276.4z"/>
<polygon class="st2" points="-1236.6,365.6 -1289,365.6 -1230.5,63.4 -1172,63.4 "/>
<polygon class="st1" points="-1082.3,365.5 -1134.8,365.5 -1076.3,63.3 -1017.7,63.3 "/>
<polygon class="st2" points="-1112,365.5 -1164.5,365.5 -1105.9,63.3 -1047.4,63.3 "/>
<polygon class="st1" points="-957.8,365.6 -1010.2,365.6 -951.7,63.4 -893.2,63.4 "/>
<polygon class="st2" points="-987.4,365.6 -1039.9,365.6 -981.4,63.4 -922.8,63.4 "/>
<path class="st3" d="M-1221.6,444.5c15.6-15.6,15.6-41,0-56.7c-15.6-15.6-41-15.6-56.6,0c-15.6,15.6-15.6,41,0,56.7
	C-1262.6,460.2-1237.2,460.2-1221.6,444.5z"/>
<path class="st4" d="M-1231,435.4c10.4-10.5,10.4-27.4,0-37.9c-10.4-10.5-27.4-10.5-37.8,0c-10.4,10.5-10.4,27.4,0,37.9
	C-1258.4,445.9-1241.4,445.9-1231,435.4z"/>
<path class="st3" d="M-1097,444.8c15.6-15.6,15.6-41,0-56.7c-15.6-15.6-41-15.6-56.6,0c-15.6,15.6-15.6,41,0,56.7
	C-1138,460.5-1112.7,460.5-1097,444.8z"/>
<path class="st4" d="M-1106.4,435.7c10.4-10.5,10.4-27.4,0-37.9c-10.4-10.5-27.4-10.5-37.8,0c-10.4,10.5-10.4,27.4,0,37.9
	C-1133.8,446.1-1116.9,446.1-1106.4,435.7z"/>
<path class="st3" d="M-970.6,445.1c15.6-15.6,15.6-41,0-56.7c-15.6-15.6-41-15.6-56.6,0c-15.6,15.6-15.6,41,0,56.7
	C-1011.6,460.7-986.3,460.7-970.6,445.1z"/>
<path class="st4" d="M-980,435.9c10.4-10.5,10.4-27.4,0-37.9c-10.4-10.5-27.4-10.5-37.8,0c-10.4,10.5-10.4,27.4,0,37.9
	C-1007.4,446.4-990.5,446.4-980,435.9z"/>
<g class="st5">
	<path class="st6" d="M101.7,205.1c9-9,9-23.7,0-32.7c-9-9-23.6-9-32.7,0c-9,9-9,23.7,0,32.7C78.1,214.1,92.7,214.1,101.7,205.1z"/>
	<path class="st6" d="M226.7,205.2c9-9,9-23.7,0-32.7c-9-9-23.6-9-32.7,0c-9,9-9,23.7,0,32.7C203.1,214.3,217.7,214.3,226.7,205.2z"
		/>
	<path class="st6" d="M351.7,204.9c9-9,9-23.7,0-32.7c-9-9-23.6-9-32.7,0c-9,9-9,23.7,0,32.7C328,213.9,342.6,213.9,351.7,204.9z"/>
	<path class="st7" d="M96.3,199.8c6-6,6-15.8,0-21.9c-6-6-15.8-6-21.8,0c-6,6-6,15.8,0,21.9C80.5,205.8,90.3,205.8,96.3,199.8z"/>
	<path class="st7" d="M221.3,199.7c6-6,6-15.8,0-21.9c-6-6-15.8-6-21.8,0c-6,6-6,15.8,0,21.9C205.5,205.7,215.3,205.7,221.3,199.7z"
		/>
	<path class="st7" d="M346.3,199.8c6-6,6-15.8,0-21.9c-6-6-15.8-6-21.8,0c-6,6-6,15.8,0,21.9C330.4,205.8,340.2,205.8,346.3,199.8z"
		/>
</g>
<path class="st8" d="M103.3,384.3L276.1,63.2c0,0,42.7,13.8,51.2,22.5L150.2,411.3C150.2,411.3,122.8,400.1,103.3,384.3z"/>
<path class="st8" d="M152,240.2c0,0-2.5,47.2-59.3,47.2c-23.7,0-28.1-17.5-28.1-17.5s25.8-3.9,28.1-29.1"/>
<g>
	<path class="st9" d="M33.2,233.4c1-46.9,22.4-99.8,67.5-121c18.7-8.6,40.2-11.3,60.3-6.5c49.9,12.5,77,62.3,92,107.1
		c1.5,4.2,3,8.1,4,12.1c1.8,5.5,3.4,11.6,4.7,16.9c5.1,19.8,8.5,39.6,26,49.5c10.2,5.9,28.2,8.1,41.6,7.6
		c43-0.4,70.7-26.8,84.4-66.6c5.2,26.9-2.9,56-21,76.8c-15.8,18.3-38.7,29.4-62.2,34c-51.3,10.9-96.1-6.3-116.9-56.3
		c-6-14-8.8-27.7-13-41.6c-0.7-2-1.8-5.6-2-6.7c-8.9-25.9-18-54.9-37.5-74.3c-8.7-8.7-20-13.6-32.3-13.5
		C85.2,150.3,52.9,199,33.2,233.4L33.2,233.4z"/>
</g>
<path class="st9" d="M143.3,261.1c11.6-11.6,11.6-30.4,0-41.9c-11.6-11.6-30.3-11.6-41.9,0c-11.6,11.6-11.6,30.4,0,41.9
	C113,272.7,131.8,272.7,143.3,261.1z"/>
<g>
	<path class="st9" d="M-421.9,248.8c1-46.9,22.4-99.8,67.5-121c18.7-8.6,40.2-11.3,60.3-6.5c49.9,12.5,77,62.3,92,107.1
		c1.5,4.2,3,8.1,4,12.1c1.8,5.5,3.4,11.6,4.7,16.9c5.1,19.8,8.5,39.6,26,49.5c10.2,5.9,28.2,8.1,41.6,7.6
		c43-0.4,70.7-26.8,84.4-66.6c5.2,26.9-2.9,56-21,76.8c-15.8,18.3-38.7,29.4-62.2,34c-51.3,10.9-96.1-6.3-116.9-56.3
		c-6-14-8.8-27.7-13-41.6c-0.7-2-1.8-5.6-2-6.7c-8.9-25.9-18-54.9-37.5-74.3c-8.7-8.7-20-13.6-32.3-13.5
		C-370,165.7-402.3,214.4-421.9,248.8L-421.9,248.8z"/>
</g>
<g>
	<path class="st10" d="M-421.9,248.8c0.9-23.9,10.2-46.4,25.9-64.9c16.6-19.7,42.5-32.5,68.4-35.2c58.5-7.5,107.1,31.8,127.3,84.8
		c1.4,3.8,1.6,5.1,2.3,7.4c3.8,10.9,6.2,23.2,11.3,32.4c4.5,8.3,11.9,12.3,21,15.1c11.7,3.6,27.7,5,41,5.2
		c35.3,0.7,69.5-9.7,83.2-45.6c5.6,24.6-7.4,49.8-26.7,65.2c-30.3,25.1-91.6,36.4-129,22.2c-23.2-8.2-40.3-27.4-49-49.7
		c-3.5-8.4-5.9-17.1-8.6-25.3c-0.4-1.3-1.2-3.5-1.4-4.6c-0.4-1.4-0.6-2-0.4-1.6c-8.5-21.7-23.7-43.4-45.9-53
		c-12.5-5.6-28.8-7.4-42.9-5.8C-377.6,198.8-403.9,222.8-421.9,248.8L-421.9,248.8z"/>
</g>
<g>
	<path class="st11" d="M-421.9,248.8c4.6-21.4,16.8-40.5,33.3-55.2c20.5-18.3,48.5-27.2,75.8-27.6c34-1.1,65.8,11.6,85.3,40.8
		c2.8,4.1,5.2,8.1,7.6,12.2c0.5,0.9,1.3,1.9,1.9,2.8c1.4,2.2,2.7,4.9,3.8,7.1c2.6,5.4,5.4,10.9,7.3,16.6c7.1,21.3,11.6,42.7,37,46.9
		c17,3.2,37.4-0.3,54.8-3.5c24-4.9,56.1-12.9,70.5-34.2c1.3-2.1,2.5-4.4,3.2-6.9c0.9,5.4-0.5,11-2.5,16.1
		c-4.3,10.4-12,19.1-20.5,26.3c-12.7,10.6-27.7,18.5-42.9,24.6c-10.2,4.1-20.6,7.6-31.4,10.1c-33,7.8-67.6,3.1-88.2-26.6
		c-7.2-10.2-11.7-21.7-15.4-32.8c-0.2-0.5-2.6-7.8-2.7-8.1c-0.1-0.2-0.3-0.8-0.1-0.4c0,0,0.1,0.1,0.1,0.1c0,0.1,0,0,0-0.1
		c0,0-0.1-0.2-0.1-0.2s-0.3-0.6-0.3-0.6c-2-4.5-4.2-9.2-6.5-13.5c0-0.1,0.1,0.1,0.1,0.2c0.1,0.1,0.3,0.4,0.3,0.5
		c0,0,0.1,0.2,0.1,0.1c-0.5-0.7-1.4-2-1.8-2.8c-1.1-1.7-2.7-4.5-3.7-6.3c-5-8.9-10.8-16.7-19-22.5c-11.7-8.7-28.3-12.5-43.2-13.8
		C-361.2,194.5-397.8,214.9-421.9,248.8L-421.9,248.8z"/>
</g>
<path class="st8" d="M292.8,240.2c0,0,2.5-47.2,59.3-47.2c23.7,0,28.1,17.5,28.1,17.5s-25.8,3.9-28.1,29.1"/>
<path class="st9" d="M301.5,219.2c-11.6,11.6-11.6,30.4,0,41.9c11.6,11.6,30.3,11.6,41.9,0c11.6-11.6,11.6-30.4,0-41.9
	C331.8,207.6,313,207.6,301.5,219.2z"/>
<polygon class="st1" points="-766.2,365.8 -818.7,365.8 -760.2,63.5 -701.6,63.5 "/>
<polygon class="st2" points="-795.9,365.8 -848.3,365.8 -789.8,63.5 -731.3,63.5 "/>
<polygon class="st1" points="-641.7,365.6 -694.1,365.6 -635.6,63.4 -577.1,63.4 "/>
<polygon class="st2" points="-671.3,365.6 -723.8,365.6 -665.3,63.4 -606.7,63.4 "/>
<polygon class="st1" points="-517.1,365.8 -569.5,365.8 -511,63.5 -452.5,63.5 "/>
<polygon class="st2" points="-546.8,365.8 -599.2,365.8 -540.7,63.5 -482.2,63.5 "/>
<path class="st4" d="M-781.8,440.4c16.1-10.5,16.1-27.4,0-37.9c-16.1-10.5-42.2-10.5-58.3,0c-16.1,10.5-16.1,27.4,0,37.9
	C-824.1,450.9-797.9,450.9-781.8,440.4z"/>
<path class="st3" d="M-806.6,440.4c10.4-10.5,10.4-27.4,0-37.9c-10.4-10.5-27.4-10.5-37.8,0c-10.4,10.5-10.4,27.4,0,37.9
	C-834,450.9-817,450.9-806.6,440.4z"/>
<path class="st4" d="M-660.9,440.4c16.1-10.5,16.1-27.4,0-37.9c-16.1-10.5-42.2-10.5-58.3,0c-16.1,10.5-16.1,27.4,0,37.9
	C-703.1,450.9-677,450.9-660.9,440.4z"/>
<path class="st3" d="M-685.6,440.4c10.4-10.5,10.4-27.4,0-37.9c-10.4-10.5-27.4-10.5-37.8,0c-10.4,10.5-10.4,27.4,0,37.9
	C-713,450.9-696.1,450.9-685.6,440.4z"/>
<path class="st4" d="M-532.1,440.7c16.1-10.5,16.1-27.4,0-37.9c-16.1-10.5-42.2-10.5-58.3,0c-16.1,10.5-16.1,27.4,0,37.9
	C-574.3,451.1-548.2,451.1-532.1,440.7z"/>
<path class="st3" d="M-556.8,440.7c10.4-10.5,10.4-27.4,0-37.9c-10.4-10.5-27.4-10.5-37.8,0c-10.4,10.5-10.4,27.4,0,37.9
	C-584.2,451.1-567.3,451.1-556.8,440.7z"/>
</svg>
