<?xml version="1.0" encoding="utf-8"?>
<!-- Generator: Adobe Illustrator 27.2.0, SVG Export Plug-In . SVG Version: 6.00 Build 0)  -->
<svg version="1.1" id="Слой_1" xmlns="http://www.w3.org/2000/svg" xmlns:xlink="http://www.w3.org/1999/xlink" x="0px" y="0px"
	 viewBox="0 0 1000 1000" enable-background="new 0 0 1000 1000" xml:space="preserve">
<rect display="none" width="1000" height="1000"/>
<g display="none">
	<path display="inline" fill="#FFFFFF" d="M643.24,561h-92.61c-13.55,0-24.53,10.98-24.53,24.53v243.51
		c0,17.65,14.31,31.95,31.95,31.95h85.84c13.19,0,23.89-10.69,23.89-23.89V585.53C667.77,571.98,656.79,561,643.24,561z"/>
	<path display="inline" fill="#FFFFFF" d="M433.21,561H340.6c-13.55,0-24.53,10.98-24.53,24.53v92.61
		c0,13.55,10.98,24.53,24.53,24.53h92.61c13.55,0,24.53-10.98,24.53-24.53v-92.61C457.75,571.98,446.76,561,433.21,561z"/>
	<path display="inline" fill="#FFFFFF" d="M768.99,0H231.01C103.43,0,0,103.43,0,231.01v537.98C0,896.57,103.43,1000,231.01,1000
		h537.98C896.57,1000,1000,896.57,1000,768.99V231.01C1000,103.43,896.57,0,768.99,0z M806.9,500.28H781v259.87
		C781,838.49,707.33,902,616.44,902H382.56C291.67,902,218,838.49,218,760.14V500.28h-25.78c-67.96,0-100.57-71.91-50.63-111.64
		l307.34-244.57c28.6-22.76,72.67-22.76,101.27,0l307.34,244.57C907.47,428.37,874.86,500.28,806.9,500.28z"/>
</g>
<path display="none" fill="#FFFFFF" d="M771.67,1000H228.33C102.23,1000,0,897.77,0,771.67V228.33C0,102.23,102.23,0,228.33,0
	h543.33C897.77,0,1000,102.23,1000,228.33v543.33C1000,897.77,897.77,1000,771.67,1000z"/>
<path display="none" fill="#FFFFFF" d="M771.67,1000H228.33C102.23,1000,0,897.77,0,771.67V228.33C0,102.23,102.23,0,228.33,0
	h543.33C897.77,0,1000,102.23,1000,228.33v543.33C1000,897.77,897.77,1000,771.67,1000z"/>
<g>
	<path fill="#FFFFFF" d="M763,373.23H236.07c-14.12,0-25.57,11.45-25.57,25.57v0c0,14.12,11.45,25.57,25.57,25.57H763
		c14.12,0,25.57-11.45,25.57-25.57v0C788.58,384.68,777.13,373.23,763,373.23z"/>
	<path fill="#FFFFFF" d="M763,473.14H236.07c-14.12,0-25.57,11.45-25.57,25.57v0c0,14.12,11.45,25.57,25.57,25.57H763
		c14.12,0,25.57-11.45,25.57-25.57v0C788.58,484.59,777.13,473.14,763,473.14z"/>
	<path fill="#FFFFFF" d="M763,565.92H236.07c-14.12,0-25.57,11.45-25.57,25.57v0c0,14.12,11.45,25.57,25.57,25.57H763
		c14.12,0,25.57-11.45,25.57-25.57v0C788.58,577.37,777.13,565.92,763,565.92z"/>
	<path fill="#FFFFFF" d="M763,665.83H236.07c-14.12,0-25.57,11.45-25.57,25.57v0c0,14.12,11.45,25.57,25.57,25.57H763
		c14.12,0,25.57-11.45,25.57-25.57v0C788.58,677.28,777.13,665.83,763,665.83z"/>
	<path fill="#FFFFFF" d="M763,765.75H236.07c-14.12,0-25.57,11.45-25.57,25.57v0c0,14.12,11.45,25.57,25.57,25.57H763
		c14.12,0,25.57-11.45,25.57-25.57v0C788.58,777.2,777.13,765.75,763,765.75z"/>
	<path fill="#FFFFFF" d="M763,273.31H236.07c-14.12,0-25.57,11.45-25.57,25.57v0c0,14.12,11.45,25.57,25.57,25.57H763
		c14.12,0,25.57-11.45,25.57-25.57v0C788.58,284.76,777.13,273.31,763,273.31z"/>
	<path fill="#FFFFFF" d="M771.67,0H228.33C102.23,0,0,102.23,0,228.33v543.33C0,897.77,102.23,1000,228.33,1000h543.33
		c126.1,0,228.33-102.23,228.33-228.33V228.33C1000,102.23,897.77,0,771.67,0z M855.19,805.66c0,62.04-50.3,112.34-112.34,112.34
		H256.23c-62.04,0-112.34-50.3-112.34-112.34V195.34C143.89,133.3,194.18,83,256.23,83h486.62c62.04,0,112.34,50.3,112.34,112.34
		V805.66z"/>
	<path fill="#FFFFFF" d="M763,173.4H236.07c-14.12,0-25.57,11.45-25.57,25.57v0c0,14.12,11.45,25.57,25.57,25.57H763
		c14.12,0,25.57-11.45,25.57-25.57v0C788.58,184.85,777.13,173.4,763,173.4z"/>
</g>
</svg>
