<svg width="31" height="31" viewBox="0 0 31 31" fill="none" xmlns="http://www.w3.org/2000/svg">
<circle cx="15.5" cy="15.5" r="15.5" fill="#FFFFFF"/>
<path fill-rule="evenodd" clip-rule="evenodd" d="M24.5292 10.767C24.6775 10.3358 24.5292 10.0223 23.8729 10.0223H21.6909C21.1404 10.0223 20.8863 10.2968 20.7379 10.5904C20.7379 10.5904 19.6154 13.098 18.0479 14.7237C17.5396 15.1939 17.3067 15.3506 17.0313 15.3506C16.8829 15.3506 16.6921 15.1939 16.6921 14.7631V10.7467C16.6921 10.2375 16.5229 10.0024 16.0567 10.0024H12.625C12.2858 10.0024 12.0742 10.2375 12.0742 10.4726C12.0742 10.9623 12.8579 11.08 12.9425 12.4512V15.4305C12.9425 16.0769 12.8175 16.1951 12.54 16.1951C11.7988 16.1951 9.99834 13.6679 8.91834 10.7884C8.70834 10.218 8.49501 10.0024 7.94417 10.0024H5.74125C5.10583 10.0024 5 10.2765 5 10.5705C5 11.0995 5.74125 13.7635 8.4525 17.2895C10.2529 19.6977 12.8158 20.992 15.1246 20.992C16.5229 20.992 16.6921 20.6981 16.6921 20.2084V18.3866C16.6921 17.799 16.8192 17.7012 17.2642 17.7012C17.5817 17.7012 18.1538 17.8575 19.4459 19.0135C20.9284 20.3846 21.1825 21.0115 22.0088 21.0115H24.1904C24.8259 21.0115 25.1225 20.7176 24.9529 20.1495C24.7625 19.5815 24.0421 18.7589 23.11 17.7795C22.6017 17.2314 21.8392 16.624 21.6063 16.33C21.2888 15.9382 21.3734 15.7815 21.6063 15.429C21.585 15.429 24.2542 11.942 24.5292 10.7654" fill="#000000"/>
</svg>
