<?xml version="1.0" encoding="utf-8"?>
<!-- Generator: Adobe Illustrator 27.2.0, SVG Export Plug-In . SVG Version: 6.00 Build 0)  -->
<svg version="1.1" id="Слой_1" xmlns="http://www.w3.org/2000/svg" xmlns:xlink="http://www.w3.org/1999/xlink" x="0px" y="0px"
	 viewBox="0 0 600 600" style="enable-background:new 0 0 600 600;" xml:space="preserve">
<style type="text/css">
	.st0{fill:#FFFFFF;}
	.st1{fill:none;stroke:#000000;stroke-width:20;stroke-miterlimit:10;}
</style>
<g id="_Слой_3">
	<path class="st0" d="M157.4,107h278.3c19.5,0,35.4,15.8,35.4,35.4v278.3c0,19.5-15.8,35.4-35.4,35.4H157.4
		c-19.5,0-35.4-15.8-35.4-35.4V142.4C122,122.8,137.8,107,157.4,107z"/>
</g>
<g id="_Слой_6">
	<circle class="st1" cx="295.4" cy="280.9" r="90"/>
	<path class="st1" d="M305.2,370.4l-5.2,22.4c-3.7,15.8-19.5,25.7-35.4,22l-8.9-2.1c-15.8-3.7-25.7-19.5-22-35.4l5.2-22.4"/>
	<path class="st1" d="M239.2,355.4l-19.6,12.1c-13.8,8.6-31.9,4.3-40.5-9.5l-4.8-7.7c-8.6-13.8-4.3-32,9.5-40.5l19.6-12.1"/>
	<path class="st1" d="M200.4,293.9l-22.4-5.2c-15.8-3.7-25.7-19.5-22-35.4l2.1-8.9c3.7-15.8,19.5-25.7,35.4-22l22.4,5.2"/>
	<path class="st1" d="M220.1,225.7L208,206.2c-8.6-13.8-4.3-31.9,9.5-40.5l7.7-4.8c13.8-8.6,32-4.3,40.5,9.5l12.1,19.6"/>
	<path class="st1" d="M279.2,184.2l5.2-22.4c3.7-15.8,19.5-25.7,35.4-22l8.9,2.1c15.8,3.7,25.7,19.5,22,35.4l-5.2,22.4"/>
	<path class="st1" d="M348.5,203.3l19.5-12.1c13.8-8.6,32-4.3,40.5,9.5l4.8,7.7c8.6,13.8,4.3,31.9-9.5,40.5L384.4,261"/>
	<path class="st1" d="M391.3,265.7l22.4,5.2c15.8,3.7,25.7,19.5,22,35.4l-2.1,8.9c-3.7,15.8-19.5,25.7-35.4,22l-22.4-5.2"/>
	<path class="st1" d="M371.8,337l12.1,19.5c8.6,13.8,4.3,32-9.5,40.5l-7.7,4.8c-13.8,8.6-32,4.3-40.5-9.5L314,372.8"/>
	<circle class="st1" cx="295" cy="281" r="48"/>
	<circle cx="295" cy="281" r="17"/>
	<path class="st0" d="M287,424c0,0-16.1-202.3,161-202.3c0,0,18,216.3,0,216.3S287,424,287,424z"/>
	<path d="M295.5,370.3c0.6-6.2,2-14.6,4.8-23.3c4.4-13.6,22.3-16.6,31.2-5.5l0,0c8.7,10.9,25.8,8.3,30.9-4.7l36.1-92.4
		c1.8-4.5,5.3-8.2,9.8-10c3.5-1.5,8.1-3,13.1-3.7c13.2-1.9,23.6,11.1,19.3,23.7L384,420.2c-4,11.8-18.5,16-28.3,8.3l-53.5-42.4
		C297.5,382.4,294.9,376.4,295.5,370.3L295.5,370.3z"/>
</g>
</svg>
