<?xml version="1.0" encoding="utf-8"?>
<!-- Generator: Adobe Illustrator 27.2.0, SVG Export Plug-In . SVG Version: 6.00 Build 0)  -->
<svg version="1.1" id="Слой_1" xmlns="http://www.w3.org/2000/svg" xmlns:xlink="http://www.w3.org/1999/xlink" x="0px" y="0px"
	 viewBox="0 0 1143 416" style="enable-background:new 0 0 1143 416;" xml:space="preserve">
<style type="text/css">
	.st0{fill:none;stroke:#002D00;stroke-width:20;stroke-miterlimit:10;}
	.st1{fill:none;stroke:#002D00;stroke-width:10;stroke-miterlimit:10;}
	.st2{fill:none;stroke:#002D00;stroke-width:40;stroke-miterlimit:10;}
	.st3{fill:none;stroke:#002D00;stroke-width:20;stroke-linecap:round;stroke-miterlimit:10;}
	.st4{fill:#002D00;}
	.st5{fill:none;stroke:#002D00;stroke-width:15;stroke-linecap:round;stroke-miterlimit:10;}
	.st6{fill:none;stroke:#002D00;stroke-width:10;stroke-linecap:round;stroke-miterlimit:10;}
	.st7{fill:none;stroke:#002D00;stroke-width:6;}
</style>
<path class="st0" d="M413.4,133H124c-13.8,0-25,11.2-25,25v158c0,13.8,11.2,25,25,25h289.4c13.8,0,25-11.2,25-25V158
	C438.4,144.2,427.2,133,413.4,133z"/>
<path class="st1" d="M400.5,160h-264c-5.8,0-10.5,4.7-10.5,10.5v134c0,5.8,4.7,10.5,10.5,10.5h264c5.8,0,10.5-4.7,10.5-10.5v-134
	C411,164.7,406.3,160,400.5,160z"/>
<path class="st2" d="M269,341v64"/>
<path class="st3" d="M201,405h142"/>
<path class="st4" d="M140.4,171.2h4.4v4.4h-4.4V171.2z M144.7,175.5h4.4v4.4h-4.4V175.5z M144.7,179.9h4.4v4.4h-4.4V179.9z
	 M144.7,184.3h4.4v4.4h-4.4V184.3z M140.4,188.6h4.4v4.4h-4.4V188.6z M136,184.3h4.4v4.4H136V184.3z M136,179.9h4.4v4.4H136V179.9z
	 M136,175.5h4.4v4.4H136V175.5z M136,171.2h4.4v4.4H136V171.2z M144.7,171.2h4.4v4.4h-4.4V171.2z M144.7,188.6h4.4v4.4h-4.4V188.6z
	 M136,188.6h4.4v4.4H136V188.6z M153.4,171.2h4.4v4.4h-4.4V171.2z M157.8,171.2h4.4v4.4h-4.4V171.2z M157.8,175.5h4.4v4.4h-4.4
	V175.5z M157.8,179.9h4.4v4.4h-4.4V179.9z M157.8,184.3h4.4v4.4h-4.4V184.3z M157.8,188.6h4.4v4.4h-4.4V188.6z M166.5,171.2h4.4v4.4
	h-4.4V171.2z M170.9,171.2h4.4v4.4h-4.4V171.2z M170.9,175.5h4.4v4.4h-4.4V175.5z M170.9,179.9h4.4v4.4h-4.4V179.9z M170.9,184.3
	h4.4v4.4h-4.4V184.3z M170.9,188.6h4.4v4.4h-4.4V188.6z M184,171.2h4.4v4.4H184V171.2z M188.3,175.5h4.4v4.4h-4.4V175.5z
	 M188.3,179.9h4.4v4.4h-4.4V179.9z M188.3,184.3h4.4v4.4h-4.4V184.3z M184,188.6h4.4v4.4H184V188.6z M179.6,184.3h4.4v4.4h-4.4
	V184.3z M179.6,179.9h4.4v4.4h-4.4V179.9z M179.6,175.5h4.4v4.4h-4.4V175.5z M179.6,171.2h4.4v4.4h-4.4V171.2z M188.3,171.2h4.4v4.4
	h-4.4V171.2z M188.3,188.6h4.4v4.4h-4.4V188.6z M179.6,188.6h4.4v4.4h-4.4V188.6z M197,171.2h4.4v4.4H197V171.2z M201.4,171.2h4.4
	v4.4h-4.4V171.2z M201.4,175.5h4.4v4.4h-4.4V175.5z M201.4,179.9h4.4v4.4h-4.4V179.9z M201.4,184.3h4.4v4.4h-4.4V184.3z
	 M201.4,188.6h4.4v4.4h-4.4V188.6z M214.5,171.2h4.4v4.4h-4.4V171.2z M218.8,175.5h4.4v4.4h-4.4V175.5z M218.8,179.9h4.4v4.4h-4.4
	V179.9z M218.8,184.3h4.4v4.4h-4.4V184.3z M214.5,188.6h4.4v4.4h-4.4V188.6z M210.1,184.3h4.4v4.4h-4.4V184.3z M210.1,179.9h4.4v4.4
	h-4.4V179.9z M210.1,175.5h4.4v4.4h-4.4V175.5z M210.1,171.2h4.4v4.4h-4.4V171.2z M218.8,171.2h4.4v4.4h-4.4V171.2z M218.8,188.6
	h4.4v4.4h-4.4V188.6z M210.1,188.6h4.4v4.4h-4.4V188.6z M231.9,171.2h4.4v4.4h-4.4V171.2z M236.3,175.5h4.4v4.4h-4.4V175.5z
	 M236.3,179.9h4.4v4.4h-4.4V179.9z M236.3,184.3h4.4v4.4h-4.4V184.3z M231.9,188.6h4.4v4.4h-4.4V188.6z M227.5,184.3h4.4v4.4h-4.4
	V184.3z M227.5,179.9h4.4v4.4h-4.4V179.9z M227.5,175.5h4.4v4.4h-4.4V175.5z M227.5,171.2h4.4v4.4h-4.4V171.2z M236.3,171.2h4.4v4.4
	h-4.4V171.2z M236.3,188.6h4.4v4.4h-4.4V188.6z M227.5,188.6h4.4v4.4h-4.4V188.6z M245,171.2h4.4v4.4H245V171.2z M249.3,171.2h4.4
	v4.4h-4.4V171.2z M249.3,175.5h4.4v4.4h-4.4V175.5z M249.3,179.9h4.4v4.4h-4.4V179.9z M249.3,184.3h4.4v4.4h-4.4V184.3z
	 M249.3,188.6h4.4v4.4h-4.4V188.6z M262.4,171.2h4.4v4.4h-4.4V171.2z M266.8,175.5h4.4v4.4h-4.4V175.5z M266.8,179.9h4.4v4.4h-4.4
	V179.9z M266.8,184.3h4.4v4.4h-4.4V184.3z M262.4,188.6h4.4v4.4h-4.4V188.6z M258.1,184.3h4.4v4.4h-4.4V184.3z M258.1,179.9h4.4v4.4
	h-4.4V179.9z M258.1,175.5h4.4v4.4h-4.4V175.5z M258.1,171.2h4.4v4.4h-4.4V171.2z M266.8,171.2h4.4v4.4h-4.4V171.2z M266.8,188.6
	h4.4v4.4h-4.4V188.6z M258.1,188.6h4.4v4.4h-4.4V188.6z M275.5,171.2h4.4v4.4h-4.4V171.2z M279.9,171.2h4.4v4.4h-4.4V171.2z
	 M279.9,175.5h4.4v4.4h-4.4V175.5z M279.9,179.9h4.4v4.4h-4.4V179.9z M279.9,184.3h4.4v4.4h-4.4V184.3z M279.9,188.6h4.4v4.4h-4.4
	V188.6z M292.9,171.2h4.4v4.4h-4.4V171.2z M297.3,175.5h4.4v4.4h-4.4V175.5z M297.3,179.9h4.4v4.4h-4.4V179.9z M297.3,184.3h4.4v4.4
	h-4.4V184.3z M292.9,188.6h4.4v4.4h-4.4V188.6z M288.6,184.3h4.4v4.4h-4.4V184.3z M288.6,179.9h4.4v4.4h-4.4V179.9z M288.6,175.5
	h4.4v4.4h-4.4V175.5z M288.6,171.2h4.4v4.4h-4.4V171.2z M297.3,171.2h4.4v4.4h-4.4V171.2z M297.3,188.6h4.4v4.4h-4.4V188.6z
	 M288.6,188.6h4.4v4.4h-4.4V188.6z M306,171.2h4.4v4.4H306V171.2z M310.4,171.2h4.4v4.4h-4.4V171.2z M310.4,175.5h4.4v4.4h-4.4
	V175.5z M310.4,179.9h4.4v4.4h-4.4V179.9z M310.4,184.3h4.4v4.4h-4.4V184.3z M310.4,188.6h4.4v4.4h-4.4V188.6z M323.5,171.2h4.4v4.4
	h-4.4V171.2z M327.8,175.5h4.4v4.4h-4.4V175.5z M327.8,179.9h4.4v4.4h-4.4V179.9z M327.8,184.3h4.4v4.4h-4.4V184.3z M323.5,188.6
	h4.4v4.4h-4.4V188.6z M319.1,184.3h4.4v4.4h-4.4V184.3z M319.1,179.9h4.4v4.4h-4.4V179.9z M319.1,175.5h4.4v4.4h-4.4V175.5z
	 M319.1,171.2h4.4v4.4h-4.4V171.2z M327.8,171.2h4.4v4.4h-4.4V171.2z M327.8,188.6h4.4v4.4h-4.4V188.6z M319.1,188.6h4.4v4.4h-4.4
	V188.6z M340.9,171.2h4.4v4.4h-4.4V171.2z M345.3,175.5h4.4v4.4h-4.4V175.5z M345.3,179.9h4.4v4.4h-4.4V179.9z M345.3,184.3h4.4v4.4
	h-4.4V184.3z M340.9,188.6h4.4v4.4h-4.4V188.6z M336.5,184.3h4.4v4.4h-4.4V184.3z M336.5,179.9h4.4v4.4h-4.4V179.9z M336.5,175.5
	h4.4v4.4h-4.4V175.5z M336.5,171.2h4.4v4.4h-4.4V171.2z M345.3,171.2h4.4v4.4h-4.4V171.2z M345.3,188.6h4.4v4.4h-4.4V188.6z
	 M336.5,188.6h4.4v4.4h-4.4V188.6z M354,171.2h4.4v4.4H354V171.2z M358.3,171.2h4.4v4.4h-4.4V171.2z M358.3,175.5h4.4v4.4h-4.4
	V175.5z M358.3,179.9h4.4v4.4h-4.4V179.9z M358.3,184.3h4.4v4.4h-4.4V184.3z M358.3,188.6h4.4v4.4h-4.4V188.6z M371.4,171.2h4.4v4.4
	h-4.4V171.2z M375.8,175.5h4.4v4.4h-4.4V175.5z M375.8,179.9h4.4v4.4h-4.4V179.9z M375.8,184.3h4.4v4.4h-4.4V184.3z M371.4,188.6
	h4.4v4.4h-4.4V188.6z M367,184.3h4.4v4.4H367V184.3z M367,179.9h4.4v4.4H367V179.9z M367,175.5h4.4v4.4H367V175.5z M367,171.2h4.4
	v4.4H367V171.2z M375.8,171.2h4.4v4.4h-4.4V171.2z M375.8,188.6h4.4v4.4h-4.4V188.6z M367,188.6h4.4v4.4H367V188.6z M384.5,171.2
	h4.4v4.4h-4.4V171.2z M388.8,171.2h4.4v4.4h-4.4V171.2z M388.8,175.5h4.4v4.4h-4.4V175.5z M388.8,179.9h4.4v4.4h-4.4V179.9z
	 M388.8,184.3h4.4v4.4h-4.4V184.3z M388.8,188.6h4.4v4.4h-4.4V188.6z M136,199.2h4.4v4.4H136V199.2z M140.4,199.2h4.4v4.4h-4.4
	V199.2z M140.4,203.5h4.4v4.4h-4.4V203.5z M140.4,207.9h4.4v4.4h-4.4V207.9z M140.4,212.3h4.4v4.4h-4.4V212.3z M140.4,216.6h4.4v4.4
	h-4.4V216.6z M153.4,199.2h4.4v4.4h-4.4V199.2z M157.8,203.5h4.4v4.4h-4.4V203.5z M157.8,207.9h4.4v4.4h-4.4V207.9z M157.8,212.3
	h4.4v4.4h-4.4V212.3z M153.4,216.6h4.4v4.4h-4.4V216.6z M149.1,212.3h4.4v4.4h-4.4V212.3z M149.1,207.9h4.4v4.4h-4.4V207.9z
	 M149.1,203.5h4.4v4.4h-4.4V203.5z M149.1,199.2h4.4v4.4h-4.4V199.2z M157.8,199.2h4.4v4.4h-4.4V199.2z M157.8,216.6h4.4v4.4h-4.4
	V216.6z M149.1,216.6h4.4v4.4h-4.4V216.6z M166.5,199.2h4.4v4.4h-4.4V199.2z M170.9,199.2h4.4v4.4h-4.4V199.2z M170.9,203.5h4.4v4.4
	h-4.4V203.5z M170.9,207.9h4.4v4.4h-4.4V207.9z M170.9,212.3h4.4v4.4h-4.4V212.3z M170.9,216.6h4.4v4.4h-4.4V216.6z M184,199.2h4.4
	v4.4H184V199.2z M188.3,203.5h4.4v4.4h-4.4V203.5z M188.3,207.9h4.4v4.4h-4.4V207.9z M188.3,212.3h4.4v4.4h-4.4V212.3z M184,216.6
	h4.4v4.4H184V216.6z M179.6,212.3h4.4v4.4h-4.4V212.3z M179.6,207.9h4.4v4.4h-4.4V207.9z M179.6,203.5h4.4v4.4h-4.4V203.5z
	 M179.6,199.2h4.4v4.4h-4.4V199.2z M188.3,199.2h4.4v4.4h-4.4V199.2z M188.3,216.6h4.4v4.4h-4.4V216.6z M179.6,216.6h4.4v4.4h-4.4
	V216.6z M197,199.2h4.4v4.4H197V199.2z M201.4,199.2h4.4v4.4h-4.4V199.2z M201.4,203.5h4.4v4.4h-4.4V203.5z M201.4,207.9h4.4v4.4
	h-4.4V207.9z M201.4,212.3h4.4v4.4h-4.4V212.3z M201.4,216.6h4.4v4.4h-4.4V216.6z M214.5,199.2h4.4v4.4h-4.4V199.2z M218.8,203.5
	h4.4v4.4h-4.4V203.5z M218.8,207.9h4.4v4.4h-4.4V207.9z M218.8,212.3h4.4v4.4h-4.4V212.3z M214.5,216.6h4.4v4.4h-4.4V216.6z
	 M210.1,212.3h4.4v4.4h-4.4V212.3z M210.1,207.9h4.4v4.4h-4.4V207.9z M210.1,203.5h4.4v4.4h-4.4V203.5z M210.1,199.2h4.4v4.4h-4.4
	V199.2z M218.8,199.2h4.4v4.4h-4.4V199.2z M218.8,216.6h4.4v4.4h-4.4V216.6z M210.1,216.6h4.4v4.4h-4.4V216.6z M227.5,199.2h4.4v4.4
	h-4.4V199.2z M231.9,199.2h4.4v4.4h-4.4V199.2z M231.9,203.5h4.4v4.4h-4.4V203.5z M231.9,207.9h4.4v4.4h-4.4V207.9z M231.9,212.3
	h4.4v4.4h-4.4V212.3z M231.9,216.6h4.4v4.4h-4.4V216.6z M240.6,199.2h4.4v4.4h-4.4V199.2z M245,199.2h4.4v4.4H245V199.2z M245,203.5
	h4.4v4.4H245V203.5z M245,207.9h4.4v4.4H245V207.9z M245,212.3h4.4v4.4H245V212.3z M245,216.6h4.4v4.4H245V216.6z M258.1,199.2h4.4
	v4.4h-4.4V199.2z M262.4,203.5h4.4v4.4h-4.4V203.5z M262.4,207.9h4.4v4.4h-4.4V207.9z M262.4,212.3h4.4v4.4h-4.4V212.3z
	 M258.1,216.6h4.4v4.4h-4.4V216.6z M253.7,212.3h4.4v4.4h-4.4V212.3z M253.7,207.9h4.4v4.4h-4.4V207.9z M253.7,203.5h4.4v4.4h-4.4
	V203.5z M253.7,199.2h4.4v4.4h-4.4V199.2z M262.4,199.2h4.4v4.4h-4.4V199.2z M262.4,216.6h4.4v4.4h-4.4V216.6z M253.7,216.6h4.4v4.4
	h-4.4V216.6z M271.1,199.2h4.4v4.4h-4.4V199.2z M275.5,199.2h4.4v4.4h-4.4V199.2z M275.5,203.5h4.4v4.4h-4.4V203.5z M275.5,207.9
	h4.4v4.4h-4.4V207.9z M275.5,212.3h4.4v4.4h-4.4V212.3z M275.5,216.6h4.4v4.4h-4.4V216.6z M288.6,199.2h4.4v4.4h-4.4V199.2z
	 M292.9,203.5h4.4v4.4h-4.4V203.5z M292.9,207.9h4.4v4.4h-4.4V207.9z M292.9,212.3h4.4v4.4h-4.4V212.3z M288.6,216.6h4.4v4.4h-4.4
	V216.6z M284.2,212.3h4.4v4.4h-4.4V212.3z M284.2,207.9h4.4v4.4h-4.4V207.9z M284.2,203.5h4.4v4.4h-4.4V203.5z M284.2,199.2h4.4v4.4
	h-4.4V199.2z M292.9,199.2h4.4v4.4h-4.4V199.2z M292.9,216.6h4.4v4.4h-4.4V216.6z M284.2,216.6h4.4v4.4h-4.4V216.6z M301.7,199.2
	h4.4v4.4h-4.4V199.2z M306,199.2h4.4v4.4H306V199.2z M306,203.5h4.4v4.4H306V203.5z M306,207.9h4.4v4.4H306V207.9z M306,212.3h4.4
	v4.4H306V212.3z M306,216.6h4.4v4.4H306V216.6z M319.1,199.2h4.4v4.4h-4.4V199.2z M323.5,203.5h4.4v4.4h-4.4V203.5z M323.5,207.9
	h4.4v4.4h-4.4V207.9z M323.5,212.3h4.4v4.4h-4.4V212.3z M319.1,216.6h4.4v4.4h-4.4V216.6z M314.7,212.3h4.4v4.4h-4.4V212.3z
	 M314.7,207.9h4.4v4.4h-4.4V207.9z M314.7,203.5h4.4v4.4h-4.4V203.5z M314.7,199.2h4.4v4.4h-4.4V199.2z M323.5,199.2h4.4v4.4h-4.4
	V199.2z M323.5,216.6h4.4v4.4h-4.4V216.6z M314.7,216.6h4.4v4.4h-4.4V216.6z M336.5,199.2h4.4v4.4h-4.4V199.2z M340.9,203.5h4.4v4.4
	h-4.4V203.5z M340.9,207.9h4.4v4.4h-4.4V207.9z M340.9,212.3h4.4v4.4h-4.4V212.3z M336.5,216.6h4.4v4.4h-4.4V216.6z M332.2,212.3
	h4.4v4.4h-4.4V212.3z M332.2,207.9h4.4v4.4h-4.4V207.9z M332.2,203.5h4.4v4.4h-4.4V203.5z M332.2,199.2h4.4v4.4h-4.4V199.2z
	 M340.9,199.2h4.4v4.4h-4.4V199.2z M340.9,216.6h4.4v4.4h-4.4V216.6z M332.2,216.6h4.4v4.4h-4.4V216.6z M354,199.2h4.4v4.4H354
	V199.2z M358.3,203.5h4.4v4.4h-4.4V203.5z M358.3,207.9h4.4v4.4h-4.4V207.9z M358.3,212.3h4.4v4.4h-4.4V212.3z M354,216.6h4.4v4.4
	H354V216.6z M349.6,212.3h4.4v4.4h-4.4V212.3z M349.6,207.9h4.4v4.4h-4.4V207.9z M349.6,203.5h4.4v4.4h-4.4V203.5z M349.6,199.2h4.4
	v4.4h-4.4V199.2z M358.3,199.2h4.4v4.4h-4.4V199.2z M358.3,216.6h4.4v4.4h-4.4V216.6z M349.6,216.6h4.4v4.4h-4.4V216.6z
	 M371.4,199.2h4.4v4.4h-4.4V199.2z M375.8,203.5h4.4v4.4h-4.4V203.5z M375.8,207.9h4.4v4.4h-4.4V207.9z M375.8,212.3h4.4v4.4h-4.4
	V212.3z M371.4,216.6h4.4v4.4h-4.4V216.6z M367,212.3h4.4v4.4H367V212.3z M367,207.9h4.4v4.4H367V207.9z M367,203.5h4.4v4.4H367
	V203.5z M367,199.2h4.4v4.4H367V199.2z M375.8,199.2h4.4v4.4h-4.4V199.2z M375.8,216.6h4.4v4.4h-4.4V216.6z M367,216.6h4.4v4.4H367
	V216.6z M384.5,199.2h4.4v4.4h-4.4V199.2z M388.8,199.2h4.4v4.4h-4.4V199.2z M388.8,203.5h4.4v4.4h-4.4V203.5z M388.8,207.9h4.4v4.4
	h-4.4V207.9z M388.8,212.3h4.4v4.4h-4.4V212.3z M388.8,216.6h4.4v4.4h-4.4V216.6z M140.4,227.2h4.4v4.4h-4.4V227.2z M144.7,231.5
	h4.4v4.4h-4.4V231.5z M144.7,235.9h4.4v4.4h-4.4V235.9z M144.7,240.3h4.4v4.4h-4.4V240.3z M140.4,244.6h4.4v4.4h-4.4V244.6z
	 M136,240.3h4.4v4.4H136V240.3z M136,235.9h4.4v4.4H136V235.9z M136,231.5h4.4v4.4H136V231.5z M136,227.2h4.4v4.4H136V227.2z
	 M144.7,227.2h4.4v4.4h-4.4V227.2z M144.7,244.6h4.4v4.4h-4.4V244.6z M136,244.6h4.4v4.4H136V244.6z M157.8,227.2h4.4v4.4h-4.4
	V227.2z M162.2,231.5h4.4v4.4h-4.4V231.5z M162.2,235.9h4.4v4.4h-4.4V235.9z M162.2,240.3h4.4v4.4h-4.4V240.3z M157.8,244.6h4.4v4.4
	h-4.4V244.6z M153.4,240.3h4.4v4.4h-4.4V240.3z M153.4,235.9h4.4v4.4h-4.4V235.9z M153.4,231.5h4.4v4.4h-4.4V231.5z M153.4,227.2
	h4.4v4.4h-4.4V227.2z M162.2,227.2h4.4v4.4h-4.4V227.2z M162.2,244.6h4.4v4.4h-4.4V244.6z M153.4,244.6h4.4v4.4h-4.4V244.6z
	 M170.9,227.2h4.4v4.4h-4.4V227.2z M175.2,227.2h4.4v4.4h-4.4V227.2z M175.2,231.5h4.4v4.4h-4.4V231.5z M175.2,235.9h4.4v4.4h-4.4
	V235.9z M175.2,240.3h4.4v4.4h-4.4V240.3z M175.2,244.6h4.4v4.4h-4.4V244.6z M188.3,227.2h4.4v4.4h-4.4V227.2z M192.7,231.5h4.4v4.4
	h-4.4V231.5z M192.7,235.9h4.4v4.4h-4.4V235.9z M192.7,240.3h4.4v4.4h-4.4V240.3z M188.3,244.6h4.4v4.4h-4.4V244.6z M184,240.3h4.4
	v4.4H184V240.3z M184,235.9h4.4v4.4H184V235.9z M184,231.5h4.4v4.4H184V231.5z M184,227.2h4.4v4.4H184V227.2z M192.7,227.2h4.4v4.4
	h-4.4V227.2z M192.7,244.6h4.4v4.4h-4.4V244.6z M184,244.6h4.4v4.4H184V244.6z M205.8,227.2h4.4v4.4h-4.4V227.2z M210.1,231.5h4.4
	v4.4h-4.4V231.5z M210.1,235.9h4.4v4.4h-4.4V235.9z M210.1,240.3h4.4v4.4h-4.4V240.3z M205.8,244.6h4.4v4.4h-4.4V244.6z
	 M201.4,240.3h4.4v4.4h-4.4V240.3z M201.4,235.9h4.4v4.4h-4.4V235.9z M201.4,231.5h4.4v4.4h-4.4V231.5z M201.4,227.2h4.4v4.4h-4.4
	V227.2z M210.1,227.2h4.4v4.4h-4.4V227.2z M210.1,244.6h4.4v4.4h-4.4V244.6z M201.4,244.6h4.4v4.4h-4.4V244.6z M218.8,227.2h4.4v4.4
	h-4.4V227.2z M223.2,227.2h4.4v4.4h-4.4V227.2z M223.2,231.5h4.4v4.4h-4.4V231.5z M223.2,235.9h4.4v4.4h-4.4V235.9z M223.2,240.3
	h4.4v4.4h-4.4V240.3z M223.2,244.6h4.4v4.4h-4.4V244.6z M236.3,227.2h4.4v4.4h-4.4V227.2z M240.6,231.5h4.4v4.4h-4.4V231.5z
	 M240.6,235.9h4.4v4.4h-4.4V235.9z M240.6,240.3h4.4v4.4h-4.4V240.3z M236.3,244.6h4.4v4.4h-4.4V244.6z M231.9,240.3h4.4v4.4h-4.4
	V240.3z M231.9,235.9h4.4v4.4h-4.4V235.9z M231.9,231.5h4.4v4.4h-4.4V231.5z M231.9,227.2h4.4v4.4h-4.4V227.2z M240.6,227.2h4.4v4.4
	h-4.4V227.2z M240.6,244.6h4.4v4.4h-4.4V244.6z M231.9,244.6h4.4v4.4h-4.4V244.6z M249.3,227.2h4.4v4.4h-4.4V227.2z M253.7,227.2
	h4.4v4.4h-4.4V227.2z M253.7,231.5h4.4v4.4h-4.4V231.5z M253.7,235.9h4.4v4.4h-4.4V235.9z M253.7,240.3h4.4v4.4h-4.4V240.3z
	 M253.7,244.6h4.4v4.4h-4.4V244.6z M266.8,227.2h4.4v4.4h-4.4V227.2z M271.1,231.5h4.4v4.4h-4.4V231.5z M271.1,235.9h4.4v4.4h-4.4
	V235.9z M271.1,240.3h4.4v4.4h-4.4V240.3z M266.8,244.6h4.4v4.4h-4.4V244.6z M262.4,240.3h4.4v4.4h-4.4V240.3z M262.4,235.9h4.4v4.4
	h-4.4V235.9z M262.4,231.5h4.4v4.4h-4.4V231.5z M262.4,227.2h4.4v4.4h-4.4V227.2z M271.1,227.2h4.4v4.4h-4.4V227.2z M271.1,244.6
	h4.4v4.4h-4.4V244.6z M262.4,244.6h4.4v4.4h-4.4V244.6z M279.9,227.2h4.4v4.4h-4.4V227.2z M284.2,227.2h4.4v4.4h-4.4V227.2z
	 M284.2,231.5h4.4v4.4h-4.4V231.5z M284.2,235.9h4.4v4.4h-4.4V235.9z M284.2,240.3h4.4v4.4h-4.4V240.3z M284.2,244.6h4.4v4.4h-4.4
	V244.6z M292.9,227.2h4.4v4.4h-4.4V227.2z M297.3,227.2h4.4v4.4h-4.4V227.2z M297.3,231.5h4.4v4.4h-4.4V231.5z M297.3,235.9h4.4v4.4
	h-4.4V235.9z M297.3,240.3h4.4v4.4h-4.4V240.3z M297.3,244.6h4.4v4.4h-4.4V244.6z M310.4,227.2h4.4v4.4h-4.4V227.2z M314.7,231.5
	h4.4v4.4h-4.4V231.5z M314.7,235.9h4.4v4.4h-4.4V235.9z M314.7,240.3h4.4v4.4h-4.4V240.3z M310.4,244.6h4.4v4.4h-4.4V244.6z
	 M306,240.3h4.4v4.4H306V240.3z M306,235.9h4.4v4.4H306V235.9z M306,231.5h4.4v4.4H306V231.5z M306,227.2h4.4v4.4H306V227.2z
	 M314.7,227.2h4.4v4.4h-4.4V227.2z M314.7,244.6h4.4v4.4h-4.4V244.6z M306,244.6h4.4v4.4H306V244.6z M327.8,227.2h4.4v4.4h-4.4
	V227.2z M332.2,231.5h4.4v4.4h-4.4V231.5z M332.2,235.9h4.4v4.4h-4.4V235.9z M332.2,240.3h4.4v4.4h-4.4V240.3z M327.8,244.6h4.4v4.4
	h-4.4V244.6z M323.5,240.3h4.4v4.4h-4.4V240.3z M323.5,235.9h4.4v4.4h-4.4V235.9z M323.5,231.5h4.4v4.4h-4.4V231.5z M323.5,227.2
	h4.4v4.4h-4.4V227.2z M332.2,227.2h4.4v4.4h-4.4V227.2z M332.2,244.6h4.4v4.4h-4.4V244.6z M323.5,244.6h4.4v4.4h-4.4V244.6z
	 M345.3,227.2h4.4v4.4h-4.4V227.2z M349.6,231.5h4.4v4.4h-4.4V231.5z M349.6,235.9h4.4v4.4h-4.4V235.9z M349.6,240.3h4.4v4.4h-4.4
	V240.3z M345.3,244.6h4.4v4.4h-4.4V244.6z M340.9,240.3h4.4v4.4h-4.4V240.3z M340.9,235.9h4.4v4.4h-4.4V235.9z M340.9,231.5h4.4v4.4
	h-4.4V231.5z M340.9,227.2h4.4v4.4h-4.4V227.2z M349.6,227.2h4.4v4.4h-4.4V227.2z M349.6,244.6h4.4v4.4h-4.4V244.6z M340.9,244.6
	h4.4v4.4h-4.4V244.6z M358.3,227.2h4.4v4.4h-4.4V227.2z M362.7,227.2h4.4v4.4h-4.4V227.2z M362.7,231.5h4.4v4.4h-4.4V231.5z
	 M362.7,235.9h4.4v4.4h-4.4V235.9z M362.7,240.3h4.4v4.4h-4.4V240.3z M362.7,244.6h4.4v4.4h-4.4V244.6z M371.4,227.2h4.4v4.4h-4.4
	V227.2z M375.8,227.2h4.4v4.4h-4.4V227.2z M375.8,231.5h4.4v4.4h-4.4V231.5z M375.8,235.9h4.4v4.4h-4.4V235.9z M375.8,240.3h4.4v4.4
	h-4.4V240.3z M375.8,244.6h4.4v4.4h-4.4V244.6z M388.8,227.2h4.4v4.4h-4.4V227.2z M393.2,231.5h4.4v4.4h-4.4V231.5z M393.2,235.9
	h4.4v4.4h-4.4V235.9z M393.2,240.3h4.4v4.4h-4.4V240.3z M388.8,244.6h4.4v4.4h-4.4V244.6z M384.5,240.3h4.4v4.4h-4.4V240.3z
	 M384.5,235.9h4.4v4.4h-4.4V235.9z M384.5,231.5h4.4v4.4h-4.4V231.5z M384.5,227.2h4.4v4.4h-4.4V227.2z M393.2,227.2h4.4v4.4h-4.4
	V227.2z M393.2,244.6h4.4v4.4h-4.4V244.6z M384.5,244.6h4.4v4.4h-4.4V244.6z M136,255.2h4.4v4.4H136V255.2z M140.4,255.2h4.4v4.4
	h-4.4V255.2z M140.4,259.5h4.4v4.4h-4.4V259.5z M140.4,263.9h4.4v4.4h-4.4V263.9z M140.4,268.3h4.4v4.4h-4.4V268.3z M140.4,272.6
	h4.4v4.4h-4.4V272.6z M153.4,255.2h4.4v4.4h-4.4V255.2z M157.8,259.5h4.4v4.4h-4.4V259.5z M157.8,263.9h4.4v4.4h-4.4V263.9z
	 M157.8,268.3h4.4v4.4h-4.4V268.3z M153.4,272.6h4.4v4.4h-4.4V272.6z M149.1,268.3h4.4v4.4h-4.4V268.3z M149.1,263.9h4.4v4.4h-4.4
	V263.9z M149.1,259.5h4.4v4.4h-4.4V259.5z M149.1,255.2h4.4v4.4h-4.4V255.2z M157.8,255.2h4.4v4.4h-4.4V255.2z M157.8,272.6h4.4v4.4
	h-4.4V272.6z M149.1,272.6h4.4v4.4h-4.4V272.6z M166.5,255.2h4.4v4.4h-4.4V255.2z M170.9,255.2h4.4v4.4h-4.4V255.2z M170.9,259.5
	h4.4v4.4h-4.4V259.5z M170.9,263.9h4.4v4.4h-4.4V263.9z M170.9,268.3h4.4v4.4h-4.4V268.3z M170.9,272.6h4.4v4.4h-4.4V272.6z
	 M184,255.2h4.4v4.4H184V255.2z M188.3,259.5h4.4v4.4h-4.4V259.5z M188.3,263.9h4.4v4.4h-4.4V263.9z M188.3,268.3h4.4v4.4h-4.4
	V268.3z M184,272.6h4.4v4.4H184V272.6z M179.6,268.3h4.4v4.4h-4.4V268.3z M179.6,263.9h4.4v4.4h-4.4V263.9z M179.6,259.5h4.4v4.4
	h-4.4V259.5z M179.6,255.2h4.4v4.4h-4.4V255.2z M188.3,255.2h4.4v4.4h-4.4V255.2z M188.3,272.6h4.4v4.4h-4.4V272.6z M179.6,272.6
	h4.4v4.4h-4.4V272.6z M201.4,255.2h4.4v4.4h-4.4V255.2z M205.8,259.5h4.4v4.4h-4.4V259.5z M205.8,263.9h4.4v4.4h-4.4V263.9z
	 M205.8,268.3h4.4v4.4h-4.4V268.3z M201.4,272.6h4.4v4.4h-4.4V272.6z M197,268.3h4.4v4.4H197V268.3z M197,263.9h4.4v4.4H197V263.9z
	 M197,259.5h4.4v4.4H197V259.5z M197,255.2h4.4v4.4H197V255.2z M205.8,255.2h4.4v4.4h-4.4V255.2z M205.8,272.6h4.4v4.4h-4.4V272.6z
	 M197,272.6h4.4v4.4H197V272.6z M214.5,255.2h4.4v4.4h-4.4V255.2z M218.8,255.2h4.4v4.4h-4.4V255.2z M218.8,259.5h4.4v4.4h-4.4
	V259.5z M218.8,263.9h4.4v4.4h-4.4V263.9z M218.8,268.3h4.4v4.4h-4.4V268.3z M218.8,272.6h4.4v4.4h-4.4V272.6z M227.5,255.2h4.4v4.4
	h-4.4V255.2z M231.9,255.2h4.4v4.4h-4.4V255.2z M231.9,259.5h4.4v4.4h-4.4V259.5z M231.9,263.9h4.4v4.4h-4.4V263.9z M231.9,268.3
	h4.4v4.4h-4.4V268.3z M231.9,272.6h4.4v4.4h-4.4V272.6z M245,255.2h4.4v4.4H245V255.2z M249.4,259.5h4.4v4.4h-4.4V259.5z
	 M249.4,263.9h4.4v4.4h-4.4V263.9z M249.4,268.3h4.4v4.4h-4.4V268.3z M245,272.6h4.4v4.4H245V272.6z M240.6,268.3h4.4v4.4h-4.4
	V268.3z M240.6,263.9h4.4v4.4h-4.4V263.9z M240.6,259.5h4.4v4.4h-4.4V259.5z M240.6,255.2h4.4v4.4h-4.4V255.2z M249.4,255.2h4.4v4.4
	h-4.4V255.2z M249.4,272.6h4.4v4.4h-4.4V272.6z M240.6,272.6h4.4v4.4h-4.4V272.6z M258.1,255.2h4.4v4.4h-4.4V255.2z M262.4,255.2
	h4.4v4.4h-4.4V255.2z M262.4,259.5h4.4v4.4h-4.4V259.5z M262.4,263.9h4.4v4.4h-4.4V263.9z M262.4,268.3h4.4v4.4h-4.4V268.3z
	 M262.4,272.6h4.4v4.4h-4.4V272.6z M275.5,255.2h4.4v4.4h-4.4V255.2z M279.9,259.5h4.4v4.4h-4.4V259.5z M279.9,263.9h4.4v4.4h-4.4
	V263.9z M279.9,268.3h4.4v4.4h-4.4V268.3z M275.5,272.6h4.4v4.4h-4.4V272.6z M271.1,268.3h4.4v4.4h-4.4V268.3z M271.1,263.9h4.4v4.4
	h-4.4V263.9z M271.1,259.5h4.4v4.4h-4.4V259.5z M271.1,255.2h4.4v4.4h-4.4V255.2z M279.9,255.2h4.4v4.4h-4.4V255.2z M279.9,272.6
	h4.4v4.4h-4.4V272.6z M271.1,272.6h4.4v4.4h-4.4V272.6z M288.6,255.2h4.4v4.4h-4.4V255.2z M292.9,255.2h4.4v4.4h-4.4V255.2z
	 M292.9,259.5h4.4v4.4h-4.4V259.5z M292.9,263.9h4.4v4.4h-4.4V263.9z M292.9,268.3h4.4v4.4h-4.4V268.3z M292.9,272.6h4.4v4.4h-4.4
	V272.6z M306,255.2h4.4v4.4H306V255.2z M310.4,259.5h4.4v4.4h-4.4V259.5z M310.4,263.9h4.4v4.4h-4.4V263.9z M310.4,268.3h4.4v4.4
	h-4.4V268.3z M306,272.6h4.4v4.4H306V272.6z M301.7,268.3h4.4v4.4h-4.4V268.3z M301.7,263.9h4.4v4.4h-4.4V263.9z M301.7,259.5h4.4
	v4.4h-4.4V259.5z M301.7,255.2h4.4v4.4h-4.4V255.2z M310.4,255.2h4.4v4.4h-4.4V255.2z M310.4,272.6h4.4v4.4h-4.4V272.6z
	 M301.7,272.6h4.4v4.4h-4.4V272.6z M319.1,255.2h4.4v4.4h-4.4V255.2z M323.5,255.2h4.4v4.4h-4.4V255.2z M323.5,259.5h4.4v4.4h-4.4
	V259.5z M323.5,263.9h4.4v4.4h-4.4V263.9z M323.5,268.3h4.4v4.4h-4.4V268.3z M323.5,272.6h4.4v4.4h-4.4V272.6z M336.5,255.2h4.4v4.4
	h-4.4V255.2z M340.9,259.5h4.4v4.4h-4.4V259.5z M340.9,263.9h4.4v4.4h-4.4V263.9z M340.9,268.3h4.4v4.4h-4.4V268.3z M336.5,272.6
	h4.4v4.4h-4.4V272.6z M332.2,268.3h4.4v4.4h-4.4V268.3z M332.2,263.9h4.4v4.4h-4.4V263.9z M332.2,259.5h4.4v4.4h-4.4V259.5z
	 M332.2,255.2h4.4v4.4h-4.4V255.2z M340.9,255.2h4.4v4.4h-4.4V255.2z M340.9,272.6h4.4v4.4h-4.4V272.6z M332.2,272.6h4.4v4.4h-4.4
	V272.6z M349.6,255.2h4.4v4.4h-4.4V255.2z M354,255.2h4.4v4.4H354V255.2z M354,259.5h4.4v4.4H354V259.5z M354,263.9h4.4v4.4H354
	V263.9z M354,268.3h4.4v4.4H354V268.3z M354,272.6h4.4v4.4H354V272.6z M362.7,255.2h4.4v4.4h-4.4V255.2z M367.1,255.2h4.4v4.4h-4.4
	V255.2z M367.1,259.5h4.4v4.4h-4.4V259.5z M367.1,263.9h4.4v4.4h-4.4V263.9z M367.1,268.3h4.4v4.4h-4.4V268.3z M367.1,272.6h4.4v4.4
	h-4.4V272.6z M375.8,255.2h4.4v4.4h-4.4V255.2z M380.1,255.2h4.4v4.4h-4.4V255.2z M380.1,259.5h4.4v4.4h-4.4V259.5z M380.1,263.9
	h4.4v4.4h-4.4V263.9z M380.1,268.3h4.4v4.4h-4.4V268.3z M380.1,272.6h4.4v4.4h-4.4V272.6z M388.8,255.2h4.4v4.4h-4.4V255.2z
	 M393.2,255.2h4.4v4.4h-4.4V255.2z M393.2,259.5h4.4v4.4h-4.4V259.5z M393.2,263.9h4.4v4.4h-4.4V263.9z M393.2,268.3h4.4v4.4h-4.4
	V268.3z M393.2,272.6h4.4v4.4h-4.4V272.6z M136,283.2h4.4v4.4H136V283.2z M140.4,283.2h4.4v4.4h-4.4V283.2z M140.4,287.5h4.4v4.4
	h-4.4V287.5z M140.4,291.9h4.4v4.4h-4.4V291.9z M140.4,296.3h4.4v4.4h-4.4V296.3z M140.4,300.6h4.4v4.4h-4.4V300.6z M153.4,283.2
	h4.4v4.4h-4.4V283.2z M157.8,287.5h4.4v4.4h-4.4V287.5z M157.8,291.9h4.4v4.4h-4.4V291.9z M157.8,296.3h4.4v4.4h-4.4V296.3z
	 M153.4,300.6h4.4v4.4h-4.4V300.6z M149.1,296.3h4.4v4.4h-4.4V296.3z M149.1,291.9h4.4v4.4h-4.4V291.9z M149.1,287.5h4.4v4.4h-4.4
	V287.5z M149.1,283.2h4.4v4.4h-4.4V283.2z M157.8,283.2h4.4v4.4h-4.4V283.2z M157.8,300.6h4.4v4.4h-4.4V300.6z M149.1,300.6h4.4v4.4
	h-4.4V300.6z M170.9,283.2h4.4v4.4h-4.4V283.2z M175.2,287.5h4.4v4.4h-4.4V287.5z M175.2,291.9h4.4v4.4h-4.4V291.9z M175.2,296.3
	h4.4v4.4h-4.4V296.3z M170.9,300.6h4.4v4.4h-4.4V300.6z M166.5,296.3h4.4v4.4h-4.4V296.3z M166.5,291.9h4.4v4.4h-4.4V291.9z
	 M166.5,287.5h4.4v4.4h-4.4V287.5z M166.5,283.2h4.4v4.4h-4.4V283.2z M175.2,283.2h4.4v4.4h-4.4V283.2z M175.2,300.6h4.4v4.4h-4.4
	V300.6z M166.5,300.6h4.4v4.4h-4.4V300.6z M184,283.2h4.4v4.4H184V283.2z M188.3,283.2h4.4v4.4h-4.4V283.2z M188.3,287.5h4.4v4.4
	h-4.4V287.5z M188.3,291.9h4.4v4.4h-4.4V291.9z M188.3,296.3h4.4v4.4h-4.4V296.3z M188.3,300.6h4.4v4.4h-4.4V300.6z M201.4,283.2
	h4.4v4.4h-4.4V283.2z M205.8,287.5h4.4v4.4h-4.4V287.5z M205.8,291.9h4.4v4.4h-4.4V291.9z M205.8,296.3h4.4v4.4h-4.4V296.3z
	 M201.4,300.6h4.4v4.4h-4.4V300.6z M197,296.3h4.4v4.4H197V296.3z M197,291.9h4.4v4.4H197V291.9z M197,287.5h4.4v4.4H197V287.5z
	 M197,283.2h4.4v4.4H197V283.2z M205.8,283.2h4.4v4.4h-4.4V283.2z M205.8,300.6h4.4v4.4h-4.4V300.6z M197,300.6h4.4v4.4H197V300.6z
	 M218.8,283.2h4.4v4.4h-4.4V283.2z M223.2,287.5h4.4v4.4h-4.4V287.5z M223.2,291.9h4.4v4.4h-4.4V291.9z M223.2,296.3h4.4v4.4h-4.4
	V296.3z M218.8,300.6h4.4v4.4h-4.4V300.6z M214.5,296.3h4.4v4.4h-4.4V296.3z M214.5,291.9h4.4v4.4h-4.4V291.9z M214.5,287.5h4.4v4.4
	h-4.4V287.5z M214.5,283.2h4.4v4.4h-4.4V283.2z M223.2,283.2h4.4v4.4h-4.4V283.2z M223.2,300.6h4.4v4.4h-4.4V300.6z M214.5,300.6
	h4.4v4.4h-4.4V300.6z M236.3,283.2h4.4v4.4h-4.4V283.2z M240.6,287.5h4.4v4.4h-4.4V287.5z M240.6,291.9h4.4v4.4h-4.4V291.9z
	 M240.6,296.3h4.4v4.4h-4.4V296.3z M236.3,300.6h4.4v4.4h-4.4V300.6z M231.9,296.3h4.4v4.4h-4.4V296.3z M231.9,291.9h4.4v4.4h-4.4
	V291.9z M231.9,287.5h4.4v4.4h-4.4V287.5z M231.9,283.2h4.4v4.4h-4.4V283.2z M240.6,283.2h4.4v4.4h-4.4V283.2z M240.6,300.6h4.4v4.4
	h-4.4V300.6z M231.9,300.6h4.4v4.4h-4.4V300.6z M249.3,283.2h4.4v4.4h-4.4V283.2z M253.7,283.2h4.4v4.4h-4.4V283.2z M253.7,287.5
	h4.4v4.4h-4.4V287.5z M253.7,291.9h4.4v4.4h-4.4V291.9z M253.7,296.3h4.4v4.4h-4.4V296.3z M253.7,300.6h4.4v4.4h-4.4V300.6z
	 M266.8,283.2h4.4v4.4h-4.4V283.2z M271.1,287.5h4.4v4.4h-4.4V287.5z M271.1,291.9h4.4v4.4h-4.4V291.9z M271.1,296.3h4.4v4.4h-4.4
	V296.3z M266.8,300.6h4.4v4.4h-4.4V300.6z M262.4,296.3h4.4v4.4h-4.4V296.3z M262.4,291.9h4.4v4.4h-4.4V291.9z M262.4,287.5h4.4v4.4
	h-4.4V287.5z M262.4,283.2h4.4v4.4h-4.4V283.2z M271.1,283.2h4.4v4.4h-4.4V283.2z M271.1,300.6h4.4v4.4h-4.4V300.6z M262.4,300.6
	h4.4v4.4h-4.4V300.6z M284.2,283.2h4.4v4.4h-4.4V283.2z M288.6,287.5h4.4v4.4h-4.4V287.5z M288.6,291.9h4.4v4.4h-4.4V291.9z
	 M288.6,296.3h4.4v4.4h-4.4V296.3z M284.2,300.6h4.4v4.4h-4.4V300.6z M279.9,296.3h4.4v4.4h-4.4V296.3z M279.9,291.9h4.4v4.4h-4.4
	V291.9z M279.9,287.5h4.4v4.4h-4.4V287.5z M279.9,283.2h4.4v4.4h-4.4V283.2z M288.6,283.2h4.4v4.4h-4.4V283.2z M288.6,300.6h4.4v4.4
	h-4.4V300.6z M279.9,300.6h4.4v4.4h-4.4V300.6z M297.3,283.2h4.4v4.4h-4.4V283.2z M301.7,283.2h4.4v4.4h-4.4V283.2z M301.7,287.5
	h4.4v4.4h-4.4V287.5z M301.7,291.9h4.4v4.4h-4.4V291.9z M301.7,296.3h4.4v4.4h-4.4V296.3z M301.7,300.6h4.4v4.4h-4.4V300.6z
	 M314.7,283.2h4.4v4.4h-4.4V283.2z M319.1,287.5h4.4v4.4h-4.4V287.5z M319.1,291.9h4.4v4.4h-4.4V291.9z M319.1,296.3h4.4v4.4h-4.4
	V296.3z M314.7,300.6h4.4v4.4h-4.4V300.6z M310.4,296.3h4.4v4.4h-4.4V296.3z M310.4,291.9h4.4v4.4h-4.4V291.9z M310.4,287.5h4.4v4.4
	h-4.4V287.5z M310.4,283.2h4.4v4.4h-4.4V283.2z M319.1,283.2h4.4v4.4h-4.4V283.2z M319.1,300.6h4.4v4.4h-4.4V300.6z M310.4,300.6
	h4.4v4.4h-4.4V300.6z M327.8,283.2h4.4v4.4h-4.4V283.2z M332.2,283.2h4.4v4.4h-4.4V283.2z M332.2,287.5h4.4v4.4h-4.4V287.5z
	 M332.2,291.9h4.4v4.4h-4.4V291.9z M332.2,296.3h4.4v4.4h-4.4V296.3z M332.2,300.6h4.4v4.4h-4.4V300.6z M345.3,283.2h4.4v4.4h-4.4
	V283.2z M349.6,287.5h4.4v4.4h-4.4V287.5z M349.6,291.9h4.4v4.4h-4.4V291.9z M349.6,296.3h4.4v4.4h-4.4V296.3z M345.3,300.6h4.4v4.4
	h-4.4V300.6z M340.9,296.3h4.4v4.4h-4.4V296.3z M340.9,291.9h4.4v4.4h-4.4V291.9z M340.9,287.5h4.4v4.4h-4.4V287.5z M340.9,283.2
	h4.4v4.4h-4.4V283.2z M349.6,283.2h4.4v4.4h-4.4V283.2z M349.6,300.6h4.4v4.4h-4.4V300.6z M340.9,300.6h4.4v4.4h-4.4V300.6z
	 M358.3,283.2h4.4v4.4h-4.4V283.2z M362.7,283.2h4.4v4.4h-4.4V283.2z M362.7,287.5h4.4v4.4h-4.4V287.5z M362.7,291.9h4.4v4.4h-4.4
	V291.9z M362.7,296.3h4.4v4.4h-4.4V296.3z M362.7,300.6h4.4v4.4h-4.4V300.6z M375.8,283.2h4.4v4.4h-4.4V283.2z M380.1,287.5h4.4v4.4
	h-4.4V287.5z M380.1,291.9h4.4v4.4h-4.4V291.9z M380.1,296.3h4.4v4.4h-4.4V296.3z M375.8,300.6h4.4v4.4h-4.4V300.6z M371.4,296.3
	h4.4v4.4h-4.4V296.3z M371.4,291.9h4.4v4.4h-4.4V291.9z M371.4,287.5h4.4v4.4h-4.4V287.5z M371.4,283.2h4.4v4.4h-4.4V283.2z
	 M380.1,283.2h4.4v4.4h-4.4V283.2z M380.1,300.6h4.4v4.4h-4.4V300.6z M371.4,300.6h4.4v4.4h-4.4V300.6z M388.8,283.2h4.4v4.4h-4.4
	V283.2z M393.2,283.2h4.4v4.4h-4.4V283.2z M393.2,287.5h4.4v4.4h-4.4V287.5z M393.2,291.9h4.4v4.4h-4.4V291.9z M393.2,296.3h4.4v4.4
	h-4.4V296.3z M393.2,300.6h4.4v4.4h-4.4V300.6z"/>
<path class="st4" d="M521,171.2h4.4v4.4H521V171.2z M525.4,171.2h4.4v4.4h-4.4V171.2z M525.4,175.5h4.4v4.4h-4.4V175.5z
	 M525.4,179.9h4.4v4.4h-4.4V179.9z M525.4,184.3h4.4v4.4h-4.4V184.3z M525.4,188.6h4.4v4.4h-4.4V188.6z M538.4,171.2h4.4v4.4h-4.4
	V171.2z M542.8,175.5h4.4v4.4h-4.4V175.5z M542.8,179.9h4.4v4.4h-4.4V179.9z M542.8,184.3h4.4v4.4h-4.4V184.3z M538.4,188.6h4.4v4.4
	h-4.4V188.6z M534.1,184.3h4.4v4.4h-4.4V184.3z M534.1,179.9h4.4v4.4h-4.4V179.9z M534.1,175.5h4.4v4.4h-4.4V175.5z M534.1,171.2
	h4.4v4.4h-4.4V171.2z M542.8,171.2h4.4v4.4h-4.4V171.2z M542.8,188.6h4.4v4.4h-4.4V188.6z M534.1,188.6h4.4v4.4h-4.4V188.6z
	 M551.5,171.2h4.4v4.4h-4.4V171.2z M555.9,171.2h4.4v4.4h-4.4V171.2z M555.9,175.5h4.4v4.4h-4.4V175.5z M555.9,179.9h4.4v4.4h-4.4
	V179.9z M555.9,184.3h4.4v4.4h-4.4V184.3z M555.9,188.6h4.4v4.4h-4.4V188.6z M569,171.2h4.4v4.4H569V171.2z M573.3,175.5h4.4v4.4
	h-4.4V175.5z M573.3,179.9h4.4v4.4h-4.4V179.9z M573.3,184.3h4.4v4.4h-4.4V184.3z M569,188.6h4.4v4.4H569V188.6z M564.6,184.3h4.4
	v4.4h-4.4V184.3z M564.6,179.9h4.4v4.4h-4.4V179.9z M564.6,175.5h4.4v4.4h-4.4V175.5z M564.6,171.2h4.4v4.4h-4.4V171.2z
	 M573.3,171.2h4.4v4.4h-4.4V171.2z M573.3,188.6h4.4v4.4h-4.4V188.6z M564.6,188.6h4.4v4.4h-4.4V188.6z M582,171.2h4.4v4.4H582
	V171.2z M586.4,171.2h4.4v4.4h-4.4V171.2z M586.4,175.5h4.4v4.4h-4.4V175.5z M586.4,179.9h4.4v4.4h-4.4V179.9z M586.4,184.3h4.4v4.4
	h-4.4V184.3z M586.4,188.6h4.4v4.4h-4.4V188.6z M599.5,171.2h4.4v4.4h-4.4V171.2z M603.8,175.5h4.4v4.4h-4.4V175.5z M603.8,179.9
	h4.4v4.4h-4.4V179.9z M603.8,184.3h4.4v4.4h-4.4V184.3z M599.5,188.6h4.4v4.4h-4.4V188.6z M595.1,184.3h4.4v4.4h-4.4V184.3z
	 M595.1,179.9h4.4v4.4h-4.4V179.9z M595.1,175.5h4.4v4.4h-4.4V175.5z M595.1,171.2h4.4v4.4h-4.4V171.2z M603.8,171.2h4.4v4.4h-4.4
	V171.2z M603.8,188.6h4.4v4.4h-4.4V188.6z M595.1,188.6h4.4v4.4h-4.4V188.6z M612.5,171.2h4.4v4.4h-4.4V171.2z M616.9,171.2h4.4v4.4
	h-4.4V171.2z M616.9,175.5h4.4v4.4h-4.4V175.5z M616.9,179.9h4.4v4.4h-4.4V179.9z M616.9,184.3h4.4v4.4h-4.4V184.3z M616.9,188.6
	h4.4v4.4h-4.4V188.6z M630,171.2h4.4v4.4H630V171.2z M634.4,175.5h4.4v4.4h-4.4V175.5z M634.4,179.9h4.4v4.4h-4.4V179.9z
	 M634.4,184.3h4.4v4.4h-4.4V184.3z M630,188.6h4.4v4.4H630V188.6z M625.6,184.3h4.4v4.4h-4.4V184.3z M625.6,179.9h4.4v4.4h-4.4
	V179.9z M625.6,175.5h4.4v4.4h-4.4V175.5z M625.6,171.2h4.4v4.4h-4.4V171.2z M634.4,171.2h4.4v4.4h-4.4V171.2z M634.4,188.6h4.4v4.4
	h-4.4V188.6z M625.6,188.6h4.4v4.4h-4.4V188.6z M647.4,171.2h4.4v4.4h-4.4V171.2z M651.8,175.5h4.4v4.4h-4.4V175.5z M651.8,179.9
	h4.4v4.4h-4.4V179.9z M651.8,184.3h4.4v4.4h-4.4V184.3z M647.4,188.6h4.4v4.4h-4.4V188.6z M643.1,184.3h4.4v4.4h-4.4V184.3z
	 M643.1,179.9h4.4v4.4h-4.4V179.9z M643.1,175.5h4.4v4.4h-4.4V175.5z M643.1,171.2h4.4v4.4h-4.4V171.2z M651.8,171.2h4.4v4.4h-4.4
	V171.2z M651.8,188.6h4.4v4.4h-4.4V188.6z M643.1,188.6h4.4v4.4h-4.4V188.6z M664.9,171.2h4.4v4.4h-4.4V171.2z M669.2,175.5h4.4v4.4
	h-4.4V175.5z M669.2,179.9h4.4v4.4h-4.4V179.9z M669.2,184.3h4.4v4.4h-4.4V184.3z M664.9,188.6h4.4v4.4h-4.4V188.6z M660.5,184.3
	h4.4v4.4h-4.4V184.3z M660.5,179.9h4.4v4.4h-4.4V179.9z M660.5,175.5h4.4v4.4h-4.4V175.5z M660.5,171.2h4.4v4.4h-4.4V171.2z
	 M669.2,171.2h4.4v4.4h-4.4V171.2z M669.2,188.6h4.4v4.4h-4.4V188.6z M660.5,188.6h4.4v4.4h-4.4V188.6z M682.3,171.2h4.4v4.4h-4.4
	V171.2z M686.7,175.5h4.4v4.4h-4.4V175.5z M686.7,179.9h4.4v4.4h-4.4V179.9z M686.7,184.3h4.4v4.4h-4.4V184.3z M682.3,188.6h4.4v4.4
	h-4.4V188.6z M677.9,184.3h4.4v4.4h-4.4V184.3z M677.9,179.9h4.4v4.4h-4.4V179.9z M677.9,175.5h4.4v4.4h-4.4V175.5z M677.9,171.2
	h4.4v4.4h-4.4V171.2z M686.7,171.2h4.4v4.4h-4.4V171.2z M686.7,188.6h4.4v4.4h-4.4V188.6z M677.9,188.6h4.4v4.4h-4.4V188.6z
	 M699.7,171.2h4.4v4.4h-4.4V171.2z M704.1,175.5h4.4v4.4h-4.4V175.5z M704.1,179.9h4.4v4.4h-4.4V179.9z M704.1,184.3h4.4v4.4h-4.4
	V184.3z M699.7,188.6h4.4v4.4h-4.4V188.6z M695.4,184.3h4.4v4.4h-4.4V184.3z M695.4,179.9h4.4v4.4h-4.4V179.9z M695.4,175.5h4.4v4.4
	h-4.4V175.5z M695.4,171.2h4.4v4.4h-4.4V171.2z M704.1,171.2h4.4v4.4h-4.4V171.2z M704.1,188.6h4.4v4.4h-4.4V188.6z M695.4,188.6
	h4.4v4.4h-4.4V188.6z M717.2,171.2h4.4v4.4h-4.4V171.2z M721.5,175.5h4.4v4.4h-4.4V175.5z M721.5,179.9h4.4v4.4h-4.4V179.9z
	 M721.5,184.3h4.4v4.4h-4.4V184.3z M717.2,188.6h4.4v4.4h-4.4V188.6z M712.8,184.3h4.4v4.4h-4.4V184.3z M712.8,179.9h4.4v4.4h-4.4
	V179.9z M712.8,175.5h4.4v4.4h-4.4V175.5z M712.8,171.2h4.4v4.4h-4.4V171.2z M721.5,171.2h4.4v4.4h-4.4V171.2z M721.5,188.6h4.4v4.4
	h-4.4V188.6z M712.8,188.6h4.4v4.4h-4.4V188.6z M734.6,171.2h4.4v4.4h-4.4V171.2z M739,175.5h4.4v4.4H739V175.5z M739,179.9h4.4v4.4
	H739V179.9z M739,184.3h4.4v4.4H739V184.3z M734.6,188.6h4.4v4.4h-4.4V188.6z M730.2,184.3h4.4v4.4h-4.4V184.3z M730.2,179.9h4.4
	v4.4h-4.4V179.9z M730.2,175.5h4.4v4.4h-4.4V175.5z M730.2,171.2h4.4v4.4h-4.4V171.2z M739,171.2h4.4v4.4H739V171.2z M739,188.6h4.4
	v4.4H739V188.6z M730.2,188.6h4.4v4.4h-4.4V188.6z M752.1,171.2h4.4v4.4h-4.4V171.2z M756.4,175.5h4.4v4.4h-4.4V175.5z M756.4,179.9
	h4.4v4.4h-4.4V179.9z M756.4,184.3h4.4v4.4h-4.4V184.3z M752.1,188.6h4.4v4.4h-4.4V188.6z M747.7,184.3h4.4v4.4h-4.4V184.3z
	 M747.7,179.9h4.4v4.4h-4.4V179.9z M747.7,175.5h4.4v4.4h-4.4V175.5z M747.7,171.2h4.4v4.4h-4.4V171.2z M756.4,171.2h4.4v4.4h-4.4
	V171.2z M756.4,188.6h4.4v4.4h-4.4V188.6z M747.7,188.6h4.4v4.4h-4.4V188.6z M769.5,171.2h4.4v4.4h-4.4V171.2z M773.9,175.5h4.4v4.4
	h-4.4V175.5z M773.9,179.9h4.4v4.4h-4.4V179.9z M773.9,184.3h4.4v4.4h-4.4V184.3z M769.5,188.6h4.4v4.4h-4.4V188.6z M765.1,184.3
	h4.4v4.4h-4.4V184.3z M765.1,179.9h4.4v4.4h-4.4V179.9z M765.1,175.5h4.4v4.4h-4.4V175.5z M765.1,171.2h4.4v4.4h-4.4V171.2z
	 M773.9,171.2h4.4v4.4h-4.4V171.2z M773.9,188.6h4.4v4.4h-4.4V188.6z M765.1,188.6h4.4v4.4h-4.4V188.6z M521,199.2h4.4v4.4H521
	V199.2z M525.4,199.2h4.4v4.4h-4.4V199.2z M525.4,203.5h4.4v4.4h-4.4V203.5z M525.4,207.9h4.4v4.4h-4.4V207.9z M525.4,212.3h4.4v4.4
	h-4.4V212.3z M525.4,216.6h4.4v4.4h-4.4V216.6z M538.4,199.2h4.4v4.4h-4.4V199.2z M542.8,203.5h4.4v4.4h-4.4V203.5z M542.8,207.9
	h4.4v4.4h-4.4V207.9z M542.8,212.3h4.4v4.4h-4.4V212.3z M538.4,216.6h4.4v4.4h-4.4V216.6z M534.1,212.3h4.4v4.4h-4.4V212.3z
	 M534.1,207.9h4.4v4.4h-4.4V207.9z M534.1,203.5h4.4v4.4h-4.4V203.5z M534.1,199.2h4.4v4.4h-4.4V199.2z M542.8,199.2h4.4v4.4h-4.4
	V199.2z M542.8,216.6h4.4v4.4h-4.4V216.6z M534.1,216.6h4.4v4.4h-4.4V216.6z M551.5,199.2h4.4v4.4h-4.4V199.2z M555.9,199.2h4.4v4.4
	h-4.4V199.2z M555.9,203.5h4.4v4.4h-4.4V203.5z M555.9,207.9h4.4v4.4h-4.4V207.9z M555.9,212.3h4.4v4.4h-4.4V212.3z M555.9,216.6
	h4.4v4.4h-4.4V216.6z M569,199.2h4.4v4.4H569V199.2z M573.3,203.5h4.4v4.4h-4.4V203.5z M573.3,207.9h4.4v4.4h-4.4V207.9z
	 M573.3,212.3h4.4v4.4h-4.4V212.3z M569,216.6h4.4v4.4H569V216.6z M564.6,212.3h4.4v4.4h-4.4V212.3z M564.6,207.9h4.4v4.4h-4.4
	V207.9z M564.6,203.5h4.4v4.4h-4.4V203.5z M564.6,199.2h4.4v4.4h-4.4V199.2z M573.3,199.2h4.4v4.4h-4.4V199.2z M573.3,216.6h4.4v4.4
	h-4.4V216.6z M564.6,216.6h4.4v4.4h-4.4V216.6z M586.4,199.2h4.4v4.4h-4.4V199.2z M590.8,203.5h4.4v4.4h-4.4V203.5z M590.8,207.9
	h4.4v4.4h-4.4V207.9z M590.8,212.3h4.4v4.4h-4.4V212.3z M586.4,216.6h4.4v4.4h-4.4V216.6z M582,212.3h4.4v4.4H582V212.3z M582,207.9
	h4.4v4.4H582V207.9z M582,203.5h4.4v4.4H582V203.5z M582,199.2h4.4v4.4H582V199.2z M590.8,199.2h4.4v4.4h-4.4V199.2z M590.8,216.6
	h4.4v4.4h-4.4V216.6z M582,216.6h4.4v4.4H582V216.6z M599.5,199.2h4.4v4.4h-4.4V199.2z M603.8,199.2h4.4v4.4h-4.4V199.2z
	 M603.8,203.5h4.4v4.4h-4.4V203.5z M603.8,207.9h4.4v4.4h-4.4V207.9z M603.8,212.3h4.4v4.4h-4.4V212.3z M603.8,216.6h4.4v4.4h-4.4
	V216.6z M616.9,199.2h4.4v4.4h-4.4V199.2z M621.3,203.5h4.4v4.4h-4.4V203.5z M621.3,207.9h4.4v4.4h-4.4V207.9z M621.3,212.3h4.4v4.4
	h-4.4V212.3z M616.9,216.6h4.4v4.4h-4.4V216.6z M612.5,212.3h4.4v4.4h-4.4V212.3z M612.5,207.9h4.4v4.4h-4.4V207.9z M612.5,203.5
	h4.4v4.4h-4.4V203.5z M612.5,199.2h4.4v4.4h-4.4V199.2z M621.3,199.2h4.4v4.4h-4.4V199.2z M621.3,216.6h4.4v4.4h-4.4V216.6z
	 M612.5,216.6h4.4v4.4h-4.4V216.6z M634.3,199.2h4.4v4.4h-4.4V199.2z M638.7,203.5h4.4v4.4h-4.4V203.5z M638.7,207.9h4.4v4.4h-4.4
	V207.9z M638.7,212.3h4.4v4.4h-4.4V212.3z M634.3,216.6h4.4v4.4h-4.4V216.6z M630,212.3h4.4v4.4H630V212.3z M630,207.9h4.4v4.4H630
	V207.9z M630,203.5h4.4v4.4H630V203.5z M630,199.2h4.4v4.4H630V199.2z M638.7,199.2h4.4v4.4h-4.4V199.2z M638.7,216.6h4.4v4.4h-4.4
	V216.6z M630,216.6h4.4v4.4H630V216.6z M651.8,199.2h4.4v4.4h-4.4V199.2z M656.1,203.5h4.4v4.4h-4.4V203.5z M656.1,207.9h4.4v4.4
	h-4.4V207.9z M656.1,212.3h4.4v4.4h-4.4V212.3z M651.8,216.6h4.4v4.4h-4.4V216.6z M647.4,212.3h4.4v4.4h-4.4V212.3z M647.4,207.9
	h4.4v4.4h-4.4V207.9z M647.4,203.5h4.4v4.4h-4.4V203.5z M647.4,199.2h4.4v4.4h-4.4V199.2z M656.1,199.2h4.4v4.4h-4.4V199.2z
	 M656.1,216.6h4.4v4.4h-4.4V216.6z M647.4,216.6h4.4v4.4h-4.4V216.6z M664.9,199.2h4.4v4.4h-4.4V199.2z M669.2,199.2h4.4v4.4h-4.4
	V199.2z M669.2,203.5h4.4v4.4h-4.4V203.5z M669.2,207.9h4.4v4.4h-4.4V207.9z M669.2,212.3h4.4v4.4h-4.4V212.3z M669.2,216.6h4.4v4.4
	h-4.4V216.6z M682.3,199.2h4.4v4.4h-4.4V199.2z M686.7,203.5h4.4v4.4h-4.4V203.5z M686.7,207.9h4.4v4.4h-4.4V207.9z M686.7,212.3
	h4.4v4.4h-4.4V212.3z M682.3,216.6h4.4v4.4h-4.4V216.6z M677.9,212.3h4.4v4.4h-4.4V212.3z M677.9,207.9h4.4v4.4h-4.4V207.9z
	 M677.9,203.5h4.4v4.4h-4.4V203.5z M677.9,199.2h4.4v4.4h-4.4V199.2z M686.7,199.2h4.4v4.4h-4.4V199.2z M686.7,216.6h4.4v4.4h-4.4
	V216.6z M677.9,216.6h4.4v4.4h-4.4V216.6z M699.7,199.2h4.4v4.4h-4.4V199.2z M704.1,203.5h4.4v4.4h-4.4V203.5z M704.1,207.9h4.4v4.4
	h-4.4V207.9z M704.1,212.3h4.4v4.4h-4.4V212.3z M699.7,216.6h4.4v4.4h-4.4V216.6z M695.4,212.3h4.4v4.4h-4.4V212.3z M695.4,207.9
	h4.4v4.4h-4.4V207.9z M695.4,203.5h4.4v4.4h-4.4V203.5z M695.4,199.2h4.4v4.4h-4.4V199.2z M704.1,199.2h4.4v4.4h-4.4V199.2z
	 M704.1,216.6h4.4v4.4h-4.4V216.6z M695.4,216.6h4.4v4.4h-4.4V216.6z M717.2,199.2h4.4v4.4h-4.4V199.2z M721.5,203.5h4.4v4.4h-4.4
	V203.5z M721.5,207.9h4.4v4.4h-4.4V207.9z M721.5,212.3h4.4v4.4h-4.4V212.3z M717.2,216.6h4.4v4.4h-4.4V216.6z M712.8,212.3h4.4v4.4
	h-4.4V212.3z M712.8,207.9h4.4v4.4h-4.4V207.9z M712.8,203.5h4.4v4.4h-4.4V203.5z M712.8,199.2h4.4v4.4h-4.4V199.2z M721.5,199.2
	h4.4v4.4h-4.4V199.2z M721.5,216.6h4.4v4.4h-4.4V216.6z M712.8,216.6h4.4v4.4h-4.4V216.6z M730.2,199.2h4.4v4.4h-4.4V199.2z
	 M734.6,199.2h4.4v4.4h-4.4V199.2z M734.6,203.5h4.4v4.4h-4.4V203.5z M734.6,207.9h4.4v4.4h-4.4V207.9z M734.6,212.3h4.4v4.4h-4.4
	V212.3z M734.6,216.6h4.4v4.4h-4.4V216.6z M743.3,199.2h4.4v4.4h-4.4V199.2z M747.7,199.2h4.4v4.4h-4.4V199.2z M747.7,203.5h4.4v4.4
	h-4.4V203.5z M747.7,207.9h4.4v4.4h-4.4V207.9z M747.7,212.3h4.4v4.4h-4.4V212.3z M747.7,216.6h4.4v4.4h-4.4V216.6z M760.8,199.2
	h4.4v4.4h-4.4V199.2z M765.1,203.5h4.4v4.4h-4.4V203.5z M765.1,207.9h4.4v4.4h-4.4V207.9z M765.1,212.3h4.4v4.4h-4.4V212.3z
	 M760.8,216.6h4.4v4.4h-4.4V216.6z M756.4,212.3h4.4v4.4h-4.4V212.3z M756.4,207.9h4.4v4.4h-4.4V207.9z M756.4,203.5h4.4v4.4h-4.4
	V203.5z M756.4,199.2h4.4v4.4h-4.4V199.2z M765.1,199.2h4.4v4.4h-4.4V199.2z M765.1,216.6h4.4v4.4h-4.4V216.6z M756.4,216.6h4.4v4.4
	h-4.4V216.6z M773.8,199.2h4.4v4.4h-4.4V199.2z M778.2,199.2h4.4v4.4h-4.4V199.2z M778.2,203.5h4.4v4.4h-4.4V203.5z M778.2,207.9
	h4.4v4.4h-4.4V207.9z M778.2,212.3h4.4v4.4h-4.4V212.3z M778.2,216.6h4.4v4.4h-4.4V216.6z M525.4,227.2h4.4v4.4h-4.4V227.2z
	 M529.7,231.5h4.4v4.4h-4.4V231.5z M529.7,235.9h4.4v4.4h-4.4V235.9z M529.7,240.3h4.4v4.4h-4.4V240.3z M525.4,244.6h4.4v4.4h-4.4
	V244.6z M521,240.3h4.4v4.4H521V240.3z M521,235.9h4.4v4.4H521V235.9z M521,231.5h4.4v4.4H521V231.5z M521,227.2h4.4v4.4H521V227.2z
	 M529.7,227.2h4.4v4.4h-4.4V227.2z M529.7,244.6h4.4v4.4h-4.4V244.6z M521,244.6h4.4v4.4H521V244.6z M542.8,227.2h4.4v4.4h-4.4
	V227.2z M547.2,231.5h4.4v4.4h-4.4V231.5z M547.2,235.9h4.4v4.4h-4.4V235.9z M547.2,240.3h4.4v4.4h-4.4V240.3z M542.8,244.6h4.4v4.4
	h-4.4V244.6z M538.4,240.3h4.4v4.4h-4.4V240.3z M538.4,235.9h4.4v4.4h-4.4V235.9z M538.4,231.5h4.4v4.4h-4.4V231.5z M538.4,227.2
	h4.4v4.4h-4.4V227.2z M547.2,227.2h4.4v4.4h-4.4V227.2z M547.2,244.6h4.4v4.4h-4.4V244.6z M538.4,244.6h4.4v4.4h-4.4V244.6z
	 M560.2,227.2h4.4v4.4h-4.4V227.2z M564.6,231.5h4.4v4.4h-4.4V231.5z M564.6,235.9h4.4v4.4h-4.4V235.9z M564.6,240.3h4.4v4.4h-4.4
	V240.3z M560.2,244.6h4.4v4.4h-4.4V244.6z M555.9,240.3h4.4v4.4h-4.4V240.3z M555.9,235.9h4.4v4.4h-4.4V235.9z M555.9,231.5h4.4v4.4
	h-4.4V231.5z M555.9,227.2h4.4v4.4h-4.4V227.2z M564.6,227.2h4.4v4.4h-4.4V227.2z M564.6,244.6h4.4v4.4h-4.4V244.6z M555.9,244.6
	h4.4v4.4h-4.4V244.6z M573.3,227.2h4.4v4.4h-4.4V227.2z M577.7,227.2h4.4v4.4h-4.4V227.2z M577.7,231.5h4.4v4.4h-4.4V231.5z
	 M577.7,235.9h4.4v4.4h-4.4V235.9z M577.7,240.3h4.4v4.4h-4.4V240.3z M577.7,244.6h4.4v4.4h-4.4V244.6z M590.8,227.2h4.4v4.4h-4.4
	V227.2z M595.1,231.5h4.4v4.4h-4.4V231.5z M595.1,235.9h4.4v4.4h-4.4V235.9z M595.1,240.3h4.4v4.4h-4.4V240.3z M590.8,244.6h4.4v4.4
	h-4.4V244.6z M586.4,240.3h4.4v4.4h-4.4V240.3z M586.4,235.9h4.4v4.4h-4.4V235.9z M586.4,231.5h4.4v4.4h-4.4V231.5z M586.4,227.2
	h4.4v4.4h-4.4V227.2z M595.1,227.2h4.4v4.4h-4.4V227.2z M595.1,244.6h4.4v4.4h-4.4V244.6z M586.4,244.6h4.4v4.4h-4.4V244.6z
	 M608.2,227.2h4.4v4.4h-4.4V227.2z M612.6,231.5h4.4v4.4h-4.4V231.5z M612.6,235.9h4.4v4.4h-4.4V235.9z M612.6,240.3h4.4v4.4h-4.4
	V240.3z M608.2,244.6h4.4v4.4h-4.4V244.6z M603.8,240.3h4.4v4.4h-4.4V240.3z M603.8,235.9h4.4v4.4h-4.4V235.9z M603.8,231.5h4.4v4.4
	h-4.4V231.5z M603.8,227.2h4.4v4.4h-4.4V227.2z M612.6,227.2h4.4v4.4h-4.4V227.2z M612.6,244.6h4.4v4.4h-4.4V244.6z M603.8,244.6
	h4.4v4.4h-4.4V244.6z M625.6,227.2h4.4v4.4h-4.4V227.2z M630,231.5h4.4v4.4H630V231.5z M630,235.9h4.4v4.4H630V235.9z M630,240.3
	h4.4v4.4H630V240.3z M625.6,244.6h4.4v4.4h-4.4V244.6z M621.3,240.3h4.4v4.4h-4.4V240.3z M621.3,235.9h4.4v4.4h-4.4V235.9z
	 M621.3,231.5h4.4v4.4h-4.4V231.5z M621.3,227.2h4.4v4.4h-4.4V227.2z M630,227.2h4.4v4.4H630V227.2z M630,244.6h4.4v4.4H630V244.6z
	 M621.3,244.6h4.4v4.4h-4.4V244.6z M638.7,227.2h4.4v4.4h-4.4V227.2z M643.1,227.2h4.4v4.4h-4.4V227.2z M643.1,231.5h4.4v4.4h-4.4
	V231.5z M643.1,235.9h4.4v4.4h-4.4V235.9z M643.1,240.3h4.4v4.4h-4.4V240.3z M643.1,244.6h4.4v4.4h-4.4V244.6z M656.1,227.2h4.4v4.4
	h-4.4V227.2z M660.5,231.5h4.4v4.4h-4.4V231.5z M660.5,235.9h4.4v4.4h-4.4V235.9z M660.5,240.3h4.4v4.4h-4.4V240.3z M656.1,244.6
	h4.4v4.4h-4.4V244.6z M651.8,240.3h4.4v4.4h-4.4V240.3z M651.8,235.9h4.4v4.4h-4.4V235.9z M651.8,231.5h4.4v4.4h-4.4V231.5z
	 M651.8,227.2h4.4v4.4h-4.4V227.2z M660.5,227.2h4.4v4.4h-4.4V227.2z M660.5,244.6h4.4v4.4h-4.4V244.6z M651.8,244.6h4.4v4.4h-4.4
	V244.6z M673.6,227.2h4.4v4.4h-4.4V227.2z M677.9,231.5h4.4v4.4h-4.4V231.5z M677.9,235.9h4.4v4.4h-4.4V235.9z M677.9,240.3h4.4v4.4
	h-4.4V240.3z M673.6,244.6h4.4v4.4h-4.4V244.6z M669.2,240.3h4.4v4.4h-4.4V240.3z M669.2,235.9h4.4v4.4h-4.4V235.9z M669.2,231.5
	h4.4v4.4h-4.4V231.5z M669.2,227.2h4.4v4.4h-4.4V227.2z M677.9,227.2h4.4v4.4h-4.4V227.2z M677.9,244.6h4.4v4.4h-4.4V244.6z
	 M669.2,244.6h4.4v4.4h-4.4V244.6z M691,227.2h4.4v4.4H691V227.2z M695.4,231.5h4.4v4.4h-4.4V231.5z M695.4,235.9h4.4v4.4h-4.4
	V235.9z M695.4,240.3h4.4v4.4h-4.4V240.3z M691,244.6h4.4v4.4H691V244.6z M686.7,240.3h4.4v4.4h-4.4V240.3z M686.7,235.9h4.4v4.4
	h-4.4V235.9z M686.7,231.5h4.4v4.4h-4.4V231.5z M686.7,227.2h4.4v4.4h-4.4V227.2z M695.4,227.2h4.4v4.4h-4.4V227.2z M695.4,244.6
	h4.4v4.4h-4.4V244.6z M686.7,244.6h4.4v4.4h-4.4V244.6z M704.1,227.2h4.4v4.4h-4.4V227.2z M708.5,227.2h4.4v4.4h-4.4V227.2z
	 M708.5,231.5h4.4v4.4h-4.4V231.5z M708.5,235.9h4.4v4.4h-4.4V235.9z M708.5,240.3h4.4v4.4h-4.4V240.3z M708.5,244.6h4.4v4.4h-4.4
	V244.6z M721.5,227.2h4.4v4.4h-4.4V227.2z M725.9,231.5h4.4v4.4h-4.4V231.5z M725.9,235.9h4.4v4.4h-4.4V235.9z M725.9,240.3h4.4v4.4
	h-4.4V240.3z M721.5,244.6h4.4v4.4h-4.4V244.6z M717.2,240.3h4.4v4.4h-4.4V240.3z M717.2,235.9h4.4v4.4h-4.4V235.9z M717.2,231.5
	h4.4v4.4h-4.4V231.5z M717.2,227.2h4.4v4.4h-4.4V227.2z M725.9,227.2h4.4v4.4h-4.4V227.2z M725.9,244.6h4.4v4.4h-4.4V244.6z
	 M717.2,244.6h4.4v4.4h-4.4V244.6z M739,227.2h4.4v4.4H739V227.2z M743.3,231.5h4.4v4.4h-4.4V231.5z M743.3,235.9h4.4v4.4h-4.4
	V235.9z M743.3,240.3h4.4v4.4h-4.4V240.3z M739,244.6h4.4v4.4H739V244.6z M734.6,240.3h4.4v4.4h-4.4V240.3z M734.6,235.9h4.4v4.4
	h-4.4V235.9z M734.6,231.5h4.4v4.4h-4.4V231.5z M734.6,227.2h4.4v4.4h-4.4V227.2z M743.3,227.2h4.4v4.4h-4.4V227.2z M743.3,244.6
	h4.4v4.4h-4.4V244.6z M734.6,244.6h4.4v4.4h-4.4V244.6z M756.4,227.2h4.4v4.4h-4.4V227.2z M760.8,231.5h4.4v4.4h-4.4V231.5z
	 M760.8,235.9h4.4v4.4h-4.4V235.9z M760.8,240.3h4.4v4.4h-4.4V240.3z M756.4,244.6h4.4v4.4h-4.4V244.6z M752,240.3h4.4v4.4H752
	V240.3z M752,235.9h4.4v4.4H752V235.9z M752,231.5h4.4v4.4H752V231.5z M752,227.2h4.4v4.4H752V227.2z M760.8,227.2h4.4v4.4h-4.4
	V227.2z M760.8,244.6h4.4v4.4h-4.4V244.6z M752,244.6h4.4v4.4H752V244.6z M769.5,227.2h4.4v4.4h-4.4V227.2z M773.8,227.2h4.4v4.4
	h-4.4V227.2z M773.8,231.5h4.4v4.4h-4.4V231.5z M773.8,235.9h4.4v4.4h-4.4V235.9z M773.8,240.3h4.4v4.4h-4.4V240.3z M773.8,244.6
	h4.4v4.4h-4.4V244.6z M525.4,255.2h4.4v4.4h-4.4V255.2z M529.7,259.5h4.4v4.4h-4.4V259.5z M529.7,263.9h4.4v4.4h-4.4V263.9z
	 M529.7,268.3h4.4v4.4h-4.4V268.3z M525.4,272.6h4.4v4.4h-4.4V272.6z M521,268.3h4.4v4.4H521V268.3z M521,263.9h4.4v4.4H521V263.9z
	 M521,259.5h4.4v4.4H521V259.5z M521,255.2h4.4v4.4H521V255.2z M529.7,255.2h4.4v4.4h-4.4V255.2z M529.7,272.6h4.4v4.4h-4.4V272.6z
	 M521,272.6h4.4v4.4H521V272.6z M538.4,255.2h4.4v4.4h-4.4V255.2z M542.8,255.2h4.4v4.4h-4.4V255.2z M542.8,259.5h4.4v4.4h-4.4
	V259.5z M542.8,263.9h4.4v4.4h-4.4V263.9z M542.8,268.3h4.4v4.4h-4.4V268.3z M542.8,272.6h4.4v4.4h-4.4V272.6z M551.5,255.2h4.4v4.4
	h-4.4V255.2z M555.9,255.2h4.4v4.4h-4.4V255.2z M555.9,259.5h4.4v4.4h-4.4V259.5z M555.9,263.9h4.4v4.4h-4.4V263.9z M555.9,268.3
	h4.4v4.4h-4.4V268.3z M555.9,272.6h4.4v4.4h-4.4V272.6z M569,255.2h4.4v4.4H569V255.2z M573.3,259.5h4.4v4.4h-4.4V259.5z
	 M573.3,263.9h4.4v4.4h-4.4V263.9z M573.3,268.3h4.4v4.4h-4.4V268.3z M569,272.6h4.4v4.4H569V272.6z M564.6,268.3h4.4v4.4h-4.4
	V268.3z M564.6,263.9h4.4v4.4h-4.4V263.9z M564.6,259.5h4.4v4.4h-4.4V259.5z M564.6,255.2h4.4v4.4h-4.4V255.2z M573.3,255.2h4.4v4.4
	h-4.4V255.2z M573.3,272.6h4.4v4.4h-4.4V272.6z M564.6,272.6h4.4v4.4h-4.4V272.6z M582,255.2h4.4v4.4H582V255.2z M586.4,255.2h4.4
	v4.4h-4.4V255.2z M586.4,259.5h4.4v4.4h-4.4V259.5z M586.4,263.9h4.4v4.4h-4.4V263.9z M586.4,268.3h4.4v4.4h-4.4V268.3z
	 M586.4,272.6h4.4v4.4h-4.4V272.6z M595.1,255.2h4.4v4.4h-4.4V255.2z M599.5,255.2h4.4v4.4h-4.4V255.2z M599.5,259.5h4.4v4.4h-4.4
	V259.5z M599.5,263.9h4.4v4.4h-4.4V263.9z M599.5,268.3h4.4v4.4h-4.4V268.3z M599.5,272.6h4.4v4.4h-4.4V272.6z M612.6,255.2h4.4v4.4
	h-4.4V255.2z M616.9,259.5h4.4v4.4h-4.4V259.5z M616.9,263.9h4.4v4.4h-4.4V263.9z M616.9,268.3h4.4v4.4h-4.4V268.3z M612.6,272.6
	h4.4v4.4h-4.4V272.6z M608.2,268.3h4.4v4.4h-4.4V268.3z M608.2,263.9h4.4v4.4h-4.4V263.9z M608.2,259.5h4.4v4.4h-4.4V259.5z
	 M608.2,255.2h4.4v4.4h-4.4V255.2z M616.9,255.2h4.4v4.4h-4.4V255.2z M616.9,272.6h4.4v4.4h-4.4V272.6z M608.2,272.6h4.4v4.4h-4.4
	V272.6z M625.6,255.2h4.4v4.4h-4.4V255.2z M630,255.2h4.4v4.4H630V255.2z M630,259.5h4.4v4.4H630V259.5z M630,263.9h4.4v4.4H630
	V263.9z M630,268.3h4.4v4.4H630V268.3z M630,272.6h4.4v4.4H630V272.6z M638.7,255.2h4.4v4.4h-4.4V255.2z M643.1,255.2h4.4v4.4h-4.4
	V255.2z M643.1,259.5h4.4v4.4h-4.4V259.5z M643.1,263.9h4.4v4.4h-4.4V263.9z M643.1,268.3h4.4v4.4h-4.4V268.3z M643.1,272.6h4.4v4.4
	h-4.4V272.6z M656.1,255.2h4.4v4.4h-4.4V255.2z M660.5,259.5h4.4v4.4h-4.4V259.5z M660.5,263.9h4.4v4.4h-4.4V263.9z M660.5,268.3
	h4.4v4.4h-4.4V268.3z M656.1,272.6h4.4v4.4h-4.4V272.6z M651.8,268.3h4.4v4.4h-4.4V268.3z M651.8,263.9h4.4v4.4h-4.4V263.9z
	 M651.8,259.5h4.4v4.4h-4.4V259.5z M651.8,255.2h4.4v4.4h-4.4V255.2z M660.5,255.2h4.4v4.4h-4.4V255.2z M660.5,272.6h4.4v4.4h-4.4
	V272.6z M651.8,272.6h4.4v4.4h-4.4V272.6z M669.2,255.2h4.4v4.4h-4.4V255.2z M673.6,255.2h4.4v4.4h-4.4V255.2z M673.6,259.5h4.4v4.4
	h-4.4V259.5z M673.6,263.9h4.4v4.4h-4.4V263.9z M673.6,268.3h4.4v4.4h-4.4V268.3z M673.6,272.6h4.4v4.4h-4.4V272.6z M682.3,255.2
	h4.4v4.4h-4.4V255.2z M686.7,255.2h4.4v4.4h-4.4V255.2z M686.7,259.5h4.4v4.4h-4.4V259.5z M686.7,263.9h4.4v4.4h-4.4V263.9z
	 M686.7,268.3h4.4v4.4h-4.4V268.3z M686.7,272.6h4.4v4.4h-4.4V272.6z M695.4,255.2h4.4v4.4h-4.4V255.2z M699.7,255.2h4.4v4.4h-4.4
	V255.2z M699.7,259.5h4.4v4.4h-4.4V259.5z M699.7,263.9h4.4v4.4h-4.4V263.9z M699.7,268.3h4.4v4.4h-4.4V268.3z M699.7,272.6h4.4v4.4
	h-4.4V272.6z M712.8,255.2h4.4v4.4h-4.4V255.2z M717.2,259.5h4.4v4.4h-4.4V259.5z M717.2,263.9h4.4v4.4h-4.4V263.9z M717.2,268.3
	h4.4v4.4h-4.4V268.3z M712.8,272.6h4.4v4.4h-4.4V272.6z M708.5,268.3h4.4v4.4h-4.4V268.3z M708.5,263.9h4.4v4.4h-4.4V263.9z
	 M708.5,259.5h4.4v4.4h-4.4V259.5z M708.5,255.2h4.4v4.4h-4.4V255.2z M717.2,255.2h4.4v4.4h-4.4V255.2z M717.2,272.6h4.4v4.4h-4.4
	V272.6z M708.5,272.6h4.4v4.4h-4.4V272.6z M725.9,255.2h4.4v4.4h-4.4V255.2z M730.3,255.2h4.4v4.4h-4.4V255.2z M730.3,259.5h4.4v4.4
	h-4.4V259.5z M730.3,263.9h4.4v4.4h-4.4V263.9z M730.3,268.3h4.4v4.4h-4.4V268.3z M730.3,272.6h4.4v4.4h-4.4V272.6z M743.3,255.2
	h4.4v4.4h-4.4V255.2z M747.7,259.5h4.4v4.4h-4.4V259.5z M747.7,263.9h4.4v4.4h-4.4V263.9z M747.7,268.3h4.4v4.4h-4.4V268.3z
	 M743.3,272.6h4.4v4.4h-4.4V272.6z M739,268.3h4.4v4.4H739V268.3z M739,263.9h4.4v4.4H739V263.9z M739,259.5h4.4v4.4H739V259.5z
	 M739,255.2h4.4v4.4H739V255.2z M747.7,255.2h4.4v4.4h-4.4V255.2z M747.7,272.6h4.4v4.4h-4.4V272.6z M739,272.6h4.4v4.4H739V272.6z
	 M756.4,255.2h4.4v4.4h-4.4V255.2z M760.8,255.2h4.4v4.4h-4.4V255.2z M760.8,259.5h4.4v4.4h-4.4V259.5z M760.8,263.9h4.4v4.4h-4.4
	V263.9z M760.8,268.3h4.4v4.4h-4.4V268.3z M760.8,272.6h4.4v4.4h-4.4V272.6z M769.5,255.2h4.4v4.4h-4.4V255.2z M773.8,255.2h4.4v4.4
	h-4.4V255.2z M773.8,259.5h4.4v4.4h-4.4V259.5z M773.8,263.9h4.4v4.4h-4.4V263.9z M773.8,268.3h4.4v4.4h-4.4V268.3z M773.8,272.6
	h4.4v4.4h-4.4V272.6z M525.4,283.2h4.4v4.4h-4.4V283.2z M529.7,287.5h4.4v4.4h-4.4V287.5z M529.7,291.9h4.4v4.4h-4.4V291.9z
	 M529.7,296.3h4.4v4.4h-4.4V296.3z M525.4,300.6h4.4v4.4h-4.4V300.6z M521,296.3h4.4v4.4H521V296.3z M521,291.9h4.4v4.4H521V291.9z
	 M521,287.5h4.4v4.4H521V287.5z M521,283.2h4.4v4.4H521V283.2z M529.7,283.2h4.4v4.4h-4.4V283.2z M529.7,300.6h4.4v4.4h-4.4V300.6z
	 M521,300.6h4.4v4.4H521V300.6z M538.4,283.2h4.4v4.4h-4.4V283.2z M542.8,283.2h4.4v4.4h-4.4V283.2z M542.8,287.5h4.4v4.4h-4.4
	V287.5z M542.8,291.9h4.4v4.4h-4.4V291.9z M542.8,296.3h4.4v4.4h-4.4V296.3z M542.8,300.6h4.4v4.4h-4.4V300.6z M555.9,283.2h4.4v4.4
	h-4.4V283.2z M560.2,287.5h4.4v4.4h-4.4V287.5z M560.2,291.9h4.4v4.4h-4.4V291.9z M560.2,296.3h4.4v4.4h-4.4V296.3z M555.9,300.6
	h4.4v4.4h-4.4V300.6z M551.5,296.3h4.4v4.4h-4.4V296.3z M551.5,291.9h4.4v4.4h-4.4V291.9z M551.5,287.5h4.4v4.4h-4.4V287.5z
	 M551.5,283.2h4.4v4.4h-4.4V283.2z M560.2,283.2h4.4v4.4h-4.4V283.2z M560.2,300.6h4.4v4.4h-4.4V300.6z M551.5,300.6h4.4v4.4h-4.4
	V300.6z M569,283.2h4.4v4.4H569V283.2z M573.3,283.2h4.4v4.4h-4.4V283.2z M573.3,287.5h4.4v4.4h-4.4V287.5z M573.3,291.9h4.4v4.4
	h-4.4V291.9z M573.3,296.3h4.4v4.4h-4.4V296.3z M573.3,300.6h4.4v4.4h-4.4V300.6z M586.4,283.2h4.4v4.4h-4.4V283.2z M590.8,287.5
	h4.4v4.4h-4.4V287.5z M590.8,291.9h4.4v4.4h-4.4V291.9z M590.8,296.3h4.4v4.4h-4.4V296.3z M586.4,300.6h4.4v4.4h-4.4V300.6z
	 M582,296.3h4.4v4.4H582V296.3z M582,291.9h4.4v4.4H582V291.9z M582,287.5h4.4v4.4H582V287.5z M582,283.2h4.4v4.4H582V283.2z
	 M590.8,283.2h4.4v4.4h-4.4V283.2z M590.8,300.6h4.4v4.4h-4.4V300.6z M582,300.6h4.4v4.4H582V300.6z M599.5,283.2h4.4v4.4h-4.4
	V283.2z M603.8,283.2h4.4v4.4h-4.4V283.2z M603.8,287.5h4.4v4.4h-4.4V287.5z M603.8,291.9h4.4v4.4h-4.4V291.9z M603.8,296.3h4.4v4.4
	h-4.4V296.3z M603.8,300.6h4.4v4.4h-4.4V300.6z M616.9,283.2h4.4v4.4h-4.4V283.2z M621.3,287.5h4.4v4.4h-4.4V287.5z M621.3,291.9
	h4.4v4.4h-4.4V291.9z M621.3,296.3h4.4v4.4h-4.4V296.3z M616.9,300.6h4.4v4.4h-4.4V300.6z M612.5,296.3h4.4v4.4h-4.4V296.3z
	 M612.5,291.9h4.4v4.4h-4.4V291.9z M612.5,287.5h4.4v4.4h-4.4V287.5z M612.5,283.2h4.4v4.4h-4.4V283.2z M621.3,283.2h4.4v4.4h-4.4
	V283.2z M621.3,300.6h4.4v4.4h-4.4V300.6z M612.5,300.6h4.4v4.4h-4.4V300.6z M630,283.2h4.4v4.4H630V283.2z M634.3,283.2h4.4v4.4
	h-4.4V283.2z M634.3,287.5h4.4v4.4h-4.4V287.5z M634.3,291.9h4.4v4.4h-4.4V291.9z M634.3,296.3h4.4v4.4h-4.4V296.3z M634.3,300.6
	h4.4v4.4h-4.4V300.6z M647.4,283.2h4.4v4.4h-4.4V283.2z M651.8,287.5h4.4v4.4h-4.4V287.5z M651.8,291.9h4.4v4.4h-4.4V291.9z
	 M651.8,296.3h4.4v4.4h-4.4V296.3z M647.4,300.6h4.4v4.4h-4.4V300.6z M643.1,296.3h4.4v4.4h-4.4V296.3z M643.1,291.9h4.4v4.4h-4.4
	V291.9z M643.1,287.5h4.4v4.4h-4.4V287.5z M643.1,283.2h4.4v4.4h-4.4V283.2z M651.8,283.2h4.4v4.4h-4.4V283.2z M651.8,300.6h4.4v4.4
	h-4.4V300.6z M643.1,300.6h4.4v4.4h-4.4V300.6z M660.5,283.2h4.4v4.4h-4.4V283.2z M664.9,283.2h4.4v4.4h-4.4V283.2z M664.9,287.5
	h4.4v4.4h-4.4V287.5z M664.9,291.9h4.4v4.4h-4.4V291.9z M664.9,296.3h4.4v4.4h-4.4V296.3z M664.9,300.6h4.4v4.4h-4.4V300.6z
	 M673.6,283.2h4.4v4.4h-4.4V283.2z M677.9,283.2h4.4v4.4h-4.4V283.2z M677.9,287.5h4.4v4.4h-4.4V287.5z M677.9,291.9h4.4v4.4h-4.4
	V291.9z M677.9,296.3h4.4v4.4h-4.4V296.3z M677.9,300.6h4.4v4.4h-4.4V300.6z M686.7,283.2h4.4v4.4h-4.4V283.2z M691,283.2h4.4v4.4
	H691V283.2z M691,287.5h4.4v4.4H691V287.5z M691,291.9h4.4v4.4H691V291.9z M691,296.3h4.4v4.4H691V296.3z M691,300.6h4.4v4.4H691
	V300.6z M704.1,283.2h4.4v4.4h-4.4V283.2z M708.5,287.5h4.4v4.4h-4.4V287.5z M708.5,291.9h4.4v4.4h-4.4V291.9z M708.5,296.3h4.4v4.4
	h-4.4V296.3z M704.1,300.6h4.4v4.4h-4.4V300.6z M699.7,296.3h4.4v4.4h-4.4V296.3z M699.7,291.9h4.4v4.4h-4.4V291.9z M699.7,287.5
	h4.4v4.4h-4.4V287.5z M699.7,283.2h4.4v4.4h-4.4V283.2z M708.5,283.2h4.4v4.4h-4.4V283.2z M708.5,300.6h4.4v4.4h-4.4V300.6z
	 M699.7,300.6h4.4v4.4h-4.4V300.6z M717.2,283.2h4.4v4.4h-4.4V283.2z M721.5,283.2h4.4v4.4h-4.4V283.2z M721.5,287.5h4.4v4.4h-4.4
	V287.5z M721.5,291.9h4.4v4.4h-4.4V291.9z M721.5,296.3h4.4v4.4h-4.4V296.3z M721.5,300.6h4.4v4.4h-4.4V300.6z M734.6,283.2h4.4v4.4
	h-4.4V283.2z M739,287.5h4.4v4.4H739V287.5z M739,291.9h4.4v4.4H739V291.9z M739,296.3h4.4v4.4H739V296.3z M734.6,300.6h4.4v4.4
	h-4.4V300.6z M730.2,296.3h4.4v4.4h-4.4V296.3z M730.2,291.9h4.4v4.4h-4.4V291.9z M730.2,287.5h4.4v4.4h-4.4V287.5z M730.2,283.2
	h4.4v4.4h-4.4V283.2z M739,283.2h4.4v4.4H739V283.2z M739,300.6h4.4v4.4H739V300.6z M730.2,300.6h4.4v4.4h-4.4V300.6z M747.7,283.2
	h4.4v4.4h-4.4V283.2z M752.1,283.2h4.4v4.4h-4.4V283.2z M752.1,287.5h4.4v4.4h-4.4V287.5z M752.1,291.9h4.4v4.4h-4.4V291.9z
	 M752.1,296.3h4.4v4.4h-4.4V296.3z M752.1,300.6h4.4v4.4h-4.4V300.6z M765.1,283.2h4.4v4.4h-4.4V283.2z M769.5,287.5h4.4v4.4h-4.4
	V287.5z M769.5,291.9h4.4v4.4h-4.4V291.9z M769.5,296.3h4.4v4.4h-4.4V296.3z M765.1,300.6h4.4v4.4h-4.4V300.6z M760.8,296.3h4.4v4.4
	h-4.4V296.3z M760.8,291.9h4.4v4.4h-4.4V291.9z M760.8,287.5h4.4v4.4h-4.4V287.5z M760.8,283.2h4.4v4.4h-4.4V283.2z M769.5,283.2
	h4.4v4.4h-4.4V283.2z M769.5,300.6h4.4v4.4h-4.4V300.6z M760.8,300.6h4.4v4.4h-4.4V300.6z M778.2,283.2h4.4v4.4h-4.4V283.2z
	 M782.6,283.2h4.4v4.4h-4.4V283.2z M782.6,287.5h4.4v4.4h-4.4V287.5z M782.6,291.9h4.4v4.4h-4.4V291.9z M782.6,296.3h4.4v4.4h-4.4
	V296.3z M782.6,300.6h4.4v4.4h-4.4V300.6z"/>
<path class="st0" d="M1008,13H905c-19.9,0-36,16.1-36,36v319c0,19.9,16.1,36,36,36h103c19.9,0,36-16.1,36-36V49
	C1044,29.1,1027.9,13,1008,13z"/>
<path class="st5" d="M909,44h101"/>
<path class="st6" d="M1019,67.5c0,0,0,189.1,0,304.5 M898.5,67.5V372"/>
<path class="st5" d="M959,150.5c22.9,0,41.5-18.6,41.5-41.5S981.9,67.5,959,67.5s-41.5,18.6-41.5,41.5S936.1,150.5,959,150.5z"/>
<path d="M269.5,348c3.6,0,6.5-2.9,6.5-6.5s-2.9-6.5-6.5-6.5s-6.5,2.9-6.5,6.5S265.9,348,269.5,348z"/>
<path class="st4" d="M958.5,124c9.1,0,16.5-7.4,16.5-16.5S967.6,91,958.5,91S942,98.4,942,107.5S949.4,124,958.5,124z"/>
<path class="st5" d="M958.7,260.8c22.9,0,41.5-18.6,41.5-41.5c0-22.9-18.6-41.5-41.5-41.5c-22.9,0-41.5,18.6-41.5,41.5
	C917.2,242.2,935.8,260.8,958.7,260.8z"/>
<path class="st4" d="M958.2,234.3c9.1,0,16.5-7.4,16.5-16.5c0-9.1-7.4-16.5-16.5-16.5s-16.5,7.4-16.5,16.5
	C941.7,226.9,949.1,234.3,958.2,234.3z"/>
<path class="st5" d="M960,371.5c22.9,0,41.5-18.6,41.5-41.5s-18.6-41.5-41.5-41.5s-41.5,18.6-41.5,41.5S937.1,371.5,960,371.5z"/>
<path class="st4" d="M959.5,345c9.1,0,16.5-7.4,16.5-16.5s-7.4-16.5-16.5-16.5s-16.5,7.4-16.5,16.5S950.4,345,959.5,345z"/>
<path class="st5" d="M54.8,298.5H25.2c-7.6,0-13.7,6.1-13.7,13.7v81.6c0,7.6,6.1,13.7,13.7,13.7h29.6c7.6,0,13.7-6.1,13.7-13.7
	v-81.6C68.5,304.6,62.4,298.5,54.8,298.5z"/>
<path class="st7" d="M49,333.5c0,5.4-4.1,9.5-9,9.5s-9-4.1-9-9.5s4.1-9.5,9-9.5S49,328.1,49,333.5z"/>
<path class="st7" d="M49,371.5c0,5.4-4.1,9.5-9,9.5s-9-4.1-9-9.5s4.1-9.5,9-9.5S49,366.1,49,371.5z"/>
<path class="st7" d="M49,333.5c0,5.4-4.1,9.5-9,9.5s-9-4.1-9-9.5s4.1-9.5,9-9.5S49,328.1,49,333.5z"/>
<path class="st7" d="M49,371.5c0,5.4-4.1,9.5-9,9.5s-9-4.1-9-9.5s4.1-9.5,9-9.5S49,366.1,49,371.5z"/>
<path class="st0" d="M798.7,133.4H509.3c-13.8,0-25,11.2-25,25v158c0,13.8,11.2,25,25,25h289.4c13.8,0,25-11.2,25-25v-158
	C823.7,144.6,812.5,133.4,798.7,133.4z"/>
<path class="st1" d="M785.8,160.4h-264c-5.8,0-10.5,4.7-10.5,10.5v134c0,5.8,4.7,10.5,10.5,10.5h264c5.8,0,10.5-4.7,10.5-10.5v-134
	C796.3,165.1,791.6,160.4,785.8,160.4z"/>
<path class="st2" d="M654.3,341.4v64"/>
<path class="st3" d="M586.3,405.4h142"/>
<path d="M654.8,348.4c3.6,0,6.5-2.9,6.5-6.5c0-3.6-2.9-6.5-6.5-6.5c-3.6,0-6.5,2.9-6.5,6.5C648.3,345.5,651.2,348.4,654.8,348.4z"/>
<path class="st5" d="M1118.8,298.5h-29.6c-7.6,0-13.7,6.1-13.7,13.7v81.6c0,7.6,6.1,13.7,13.7,13.7h29.6c7.6,0,13.7-6.1,13.7-13.7
	v-81.6C1132.5,304.6,1126.4,298.5,1118.8,298.5z"/>
<path class="st7" d="M1113,333.5c0,5.4-4.1,9.5-9,9.5s-9-4.1-9-9.5s4.1-9.5,9-9.5S1113,328.1,1113,333.5z"/>
<path class="st7" d="M1113,371.5c0,5.4-4.1,9.5-9,9.5s-9-4.1-9-9.5s4.1-9.5,9-9.5S1113,366.1,1113,371.5z"/>
</svg>
