<?xml version="1.0" encoding="UTF-8"?>
<svg id="y4astniki" xmlns="http://www.w3.org/2000/svg" viewBox="0 0 600 600">
  <defs>
    <style>
      .cls-1 {
        fill: #fff;
      }
    </style>
  </defs>
  <circle class="cls-1" cx="186.01" cy="347.19" r="58.19"/>
  <path class="cls-1" d="m101.57,403.87c3.11-2.89,6.68-5.4,10.77-7.24,7.22-3.24,15.75-1.17,20.75,4.97,7.25,8.89,22.94,21.83,52.92,21.83,32.43,0,48.14-15.14,54.53-23.92,3.26-4.48,9.03-6.42,14.32-4.77,10.08,3.15,28.14,12.45,28.14,43.17,0,0-8.13,80.86-100.74,80.72-43.37-.07-84.47-27.53-91.98-45.05-10.53-24.57-8.3-51.52,11.29-69.72Z"/>
  <circle class="cls-1" cx="301.31" cy="130.08" r="58.19"/>
  <circle class="cls-1" cx="418.31" cy="347.08" r="58.19"/>
  <path class="cls-1" d="m333.86,403.76c3.11-2.89,6.68-5.4,10.77-7.24,7.22-3.24,15.75-1.17,20.75,4.97,7.25,8.89,22.94,21.83,52.92,21.83,32.43,0,48.14-15.14,54.53-23.92,3.26-4.48,9.03-6.42,14.32-4.77,10.08,3.15,28.14,12.45,28.14,43.17,0,0-8.13,80.86-100.74,80.72-43.37-.07-84.47-27.53-91.98-45.05-10.53-24.57-8.3-51.52,11.29-69.72Z"/>
  <path class="cls-1" d="m216.86,186.76c3.11-2.89,6.68-5.4,10.77-7.24,7.22-3.24,15.75-1.17,20.75,4.97,7.25,8.89,22.94,21.83,52.92,21.83,32.43,0,48.14-15.14,54.53-23.92,3.26-4.48,9.03-6.42,14.32-4.77,10.08,3.15,28.14,12.45,28.14,43.17,0,0-8.13,80.86-100.74,80.72-43.37-.07-84.47-27.53-91.98-45.05-10.53-24.57-8.3-51.52,11.29-69.72Z"/>
</svg>