<?xml version="1.0" encoding="utf-8"?>
<!-- Generator: Adobe Illustrator 27.2.0, SVG Export Plug-In . SVG Version: 6.00 Build 0)  -->
<svg version="1.1" id="Слой_1" xmlns="http://www.w3.org/2000/svg" xmlns:xlink="http://www.w3.org/1999/xlink" x="0px" y="0px"
	 viewBox="0 0 600 600" style="enable-background:new 0 0 600 600;" xml:space="preserve">
<style type="text/css">
	.st0{fill:#FFFFFF;}
	.st1{fill:none;stroke:#000000;stroke-width:30;stroke-linecap:round;stroke-miterlimit:10;}
	.st2{fill:none;stroke:#000000;stroke-width:15;stroke-linecap:round;stroke-miterlimit:10;}
</style>
<g id="_Слой_3">
	<path class="st0" d="M157.4,107h278.3c19.5,0,35.4,15.8,35.4,35.4v278.3c0,19.5-15.8,35.4-35.4,35.4H157.4
		c-19.5,0-35.4-15.8-35.4-35.4V142.4C122,122.8,137.8,107,157.4,107z"/>
</g>
<g id="_Слой_5">
	<path class="st1" d="M424.4,152.7l4.4,4.4c13.2,13.2,13.2,34.7,0,47.9L282.4,351.4l-52.3-52.3l146.4-146.4
		C389.7,139.5,411.2,139.5,424.4,152.7L424.4,152.7z"/>
	<path class="st1" d="M222.1,291.1c0,0-47-23.9-47,47V409H251c0,0,78.8-10.2,23.4-65.6"/>
	<line class="st2" x1="267.2" y1="298" x2="396.1" y2="169.1"/>
	<path class="st2" d="M201.5,362.5c0,0-5-70,18-36"/>
	<path d="M190,362c0,0,7.5,32,31,32l-38,21L190,362z"/>
</g>
</svg>
