<?xml version="1.0" encoding="utf-8"?>
<!-- Generator: Adobe Illustrator 27.2.0, SVG Export Plug-In . SVG Version: 6.00 Build 0)  -->
<svg version="1.1" id="Слой_1" xmlns="http://www.w3.org/2000/svg" xmlns:xlink="http://www.w3.org/1999/xlink" x="0px" y="0px"
	 viewBox="0 0 600 600" style="enable-background:new 0 0 600 600;" xml:space="preserve">
<style type="text/css">
	.st0{fill:#FFFFFF;}
	.st1{fill:none;stroke:#000000;stroke-width:20;stroke-linecap:round;stroke-linejoin:round;}
	.st2{fill:none;stroke:#000000;stroke-width:20;stroke-linecap:round;stroke-miterlimit:10;}
</style>
<g id="_Слой_3">
	<path class="st0" d="M157.4,107h278.3c19.5,0,35.4,15.8,35.4,35.4v278.3c0,19.5-15.8,35.4-35.4,35.4H157.4
		c-19.5,0-35.4-15.8-35.4-35.4V142.4C122,122.8,137.8,107,157.4,107z"/>
</g>
<g id="_Слой_2">
	<polyline class="st1" points="157,228 182,228 182,341 	"/>
	<polyline class="st1" points="169.5,198.5 213,198.5 213,341 	"/>
	<path class="st2" d="M350.9,265.9c0,0,7.6-34.8-35.1-34.8c-34.3,0-37.4,23.8-37.2,33.2c0,2.6,0,5.2-0.1,7.9
		c-0.4,10.4,2.4,36.8,41.2,36.8H436"/>
	<path class="st1" d="M379.5,270c0,0,7.9-64.2-62.8-64.2s-66.9,64.3-66.9,64.3s-4.2,70.8,65,70.8H436"/>
</g>
</svg>
