<?xml version="1.0" encoding="UTF-8"?>
<svg id="internet" xmlns="http://www.w3.org/2000/svg" viewBox="0 0 600 600">
  <defs>
    <style>
      .cls-1 {
        fill: none;
        stroke: #fff;
        stroke-linecap: round;
        stroke-miterlimit: 10;
        stroke-width: 20px;
      }
    </style>
  </defs>
  <path class="cls-1" d="m196.58,221.46c7.36,36.52-29.73,71.1-35.16,75.94-.48.43-.95.87-1.41,1.33l-43.06,43.06c-56.98,56.98,0,116.39,0,116.39,0,0,57.99,60.16,118.16,0l38.85-38.85c.4-.4.78-.8,1.16-1.22,4.98-5.49,45.56-48.62,82.68-38.16,20.35,5.73,40.99-8.87,42.57-29.96,1.89-25.12-9.5-61.77-58.7-110.97-54.2-54.2-93.17-62.52-118.27-57.74-18.59,3.53-30.56,21.63-26.82,40.19Z"/>
  <line class="cls-1" x1="300" y1="159.67" x2="300" y2="60.11"/>
  <line class="cls-1" x1="363" y1="196" x2="449" y2="110"/>
  <line class="cls-1" x1="400.58" y1="253" x2="497" y2="253"/>
  <path class="cls-1" d="m136,392s14,57.5,57.5,57.5"/>
  <path class="cls-1" d="m168.39,366.25s14,57.5,57.5,57.5"/>
  <path class="cls-1" d="m198.39,336.25s14,57.5,57.5,57.5"/>
  <path class="cls-1" d="m240.22,466.61l67.9,62.66c3.35,3.09,8.5,3.13,11.9.1l15.91-14.2c10.27-9.16,10.1-24.87-.37-33.82l-47.5-40.61c-9.28-7.93-15.18-17.09-24.07-8.75l-23.83,24.18c-3.07,2.88-3.05,7.57.04,10.43Z"/>
</svg>