<?xml version="1.0" encoding="utf-8"?>
<!-- Generator: Adobe Illustrator 27.2.0, SVG Export Plug-In . SVG Version: 6.00 Build 0)  -->
<svg version="1.1" id="Слой_1" xmlns="http://www.w3.org/2000/svg" xmlns:xlink="http://www.w3.org/1999/xlink" x="0px" y="0px"
	 viewBox="0 0 600 600" style="enable-background:new 0 0 600 600;" xml:space="preserve">
<style type="text/css">
	.st0{fill:#FFFFFF;}
</style>
<g id="_Слой_3">
	<path class="st0" d="M157.4,107h278.3c19.5,0,35.4,15.8,35.4,35.4v278.3c0,19.5-15.8,35.4-35.4,35.4H157.4
		c-19.5,0-35.4-15.8-35.4-35.4V142.4C122,122.8,137.8,107,157.4,107z"/>
</g>
<g id="_Слой_8">
	<path d="M406.4,403h-237c-12.3,0-20.2-16.3-14.5-29.9l30-70.9c2.8-6.7,8.4-10.9,14.5-10.9h237c12.3,0,20.2,16.3,14.5,29.9l-30,70.9
		C418,398.8,412.4,403,406.4,403z"/>
	<path class="st0" d="M406.4,347.1H169.4c-12.3,0-20.2-16.3-14.5-29.9l30-70.9c2.8-6.7,8.4-10.9,14.5-10.9h236.9
		c12.3,0,20.2,16.3,14.5,29.9l-30,70.9C418,343,412.4,347.1,406.4,347.1L406.4,347.1z"/>
	<path d="M401.4,338.8h-237c-12.3,0-20.2-16.3-14.5-29.9l30-70.9c2.8-6.7,8.4-10.9,14.5-10.9h237c12.3,0,20.2,16.3,14.5,29.9
		l-30,70.9C413,334.6,407.4,338.8,401.4,338.8z"/>
	<path class="st0" d="M401.4,283.2H164.4c-12.3,0-20.2-16.3-14.5-29.9l30-70.9c2.8-6.7,8.4-10.9,14.5-10.9h236.9
		c12.3,0,20.2,16.3,14.5,29.9l-30,70.9C413,279,407.4,283.2,401.4,283.2L401.4,283.2z"/>
	<path d="M393.9,272.7h-237c-12.3,0-20.2-16.3-14.5-29.9l30-70.9c2.8-6.7,8.4-10.9,14.5-10.9h237c12.3,0,20.2,16.3,14.5,29.9
		l-30,70.9C405.6,268.5,400,272.7,393.9,272.7z"/>
</g>
</svg>
