<?xml version="1.0" encoding="utf-8"?>
<!-- Generator: Adobe Illustrator 27.2.0, SVG Export Plug-In . SVG Version: 6.00 Build 0)  -->
<svg version="1.1" id="Слой_1" xmlns="http://www.w3.org/2000/svg" xmlns:xlink="http://www.w3.org/1999/xlink" x="0px" y="0px"
	 viewBox="0 0 600 600" style="enable-background:new 0 0 600 600;" xml:space="preserve">
<style type="text/css">
	.st0{display:none;}
	.st1{fill:#FFFFFF;}
</style>
<rect x="-1" y="1" class="st0" width="600.5" height="600.5"/>
<path class="st1" d="M300,600L300,600C134.3,600,0,465.7,0,300l0,0C0,134.3,134.3,0,300,0l0,0c165.7,0,300,134.3,300,300l0,0
	C600,465.7,465.7,600,300,600z"/>
<path d="M300,577.9c0,0-139.3-1.7-227.6-124.3c-11.8-16.3-12.3-38.4-0.7-54.8C119.8,330.9,300,329,300,329s193.7-4.5,231.9,89.6
	c5.7,14.1,5.2,30.2-2.3,43.5C492.8,526.8,330.5,582.2,300,577.9z"/>
<path d="M299.2,313.5L299.2,313.5c-63.4,0-114.8-51.4-114.8-114.8l0,0c0-63.4,51.4-114.8,114.8-114.8l0,0
	C362.6,84,414,135.4,414,198.8l0,0C414,262.1,362.6,313.5,299.2,313.5z"/>
</svg>
