<?xml version="1.0" encoding="utf-8"?>
<!-- Generator: Adobe Illustrator 27.2.0, SVG Export Plug-In . SVG Version: 6.00 Build 0)  -->
<svg version="1.1" id="Слой_1" xmlns="http://www.w3.org/2000/svg" xmlns:xlink="http://www.w3.org/1999/xlink" x="0px" y="0px"
	 viewBox="0 0 600 600" style="enable-background:new 0 0 600 600;" xml:space="preserve">
<style type="text/css">
	.st0{fill:#FFFFFF;}
	.st1{fill:none;stroke:#000000;stroke-width:30;stroke-linecap:round;stroke-miterlimit:10;}
</style>
<g id="_Слой_3">
	<path class="st0" d="M60.8,0h478.3C572.7,0,600,27.2,600,60.8v478.3c0,33.5-27.2,60.8-60.8,60.8H60.8C27.3,600,0,572.8,0,539.2
		V60.8C0,27.2,27.2,0,60.8,0z"/>
</g>
<g id="_Слой_4">
	<path class="st1" d="M80.8,429.7l99.3-248.2c1.4-3.4,6.2-3.3,7.4,0.2l92.3,248"/>
	<line class="st1" x1="134.2" y1="312.8" x2="230.3" y2="312.6"/>
	<path class="st1" d="M339.8,429.7V171.9c0,0,98.5-13.7,98.5,68.7S339.8,313,339.8,313"/>
	<line class="st1" x1="500.1" y1="175.3" x2="500.1" y2="433.1"/>
</g>
</svg>
