<?xml version="1.0" encoding="utf-8"?>
<!-- Generator: Adobe Illustrator 27.2.0, SVG Export Plug-In . SVG Version: 6.00 Build 0)  -->
<svg version="1.1" id="Слой_1" xmlns="http://www.w3.org/2000/svg" xmlns:xlink="http://www.w3.org/1999/xlink" x="0px" y="0px"
	 viewBox="0 0 600 600" style="enable-background:new 0 0 600 600;" xml:space="preserve">
<style type="text/css">
	.st0{fill:#FFFFFF;}
</style>
<g id="_Слой_3">
	<path class="st0" d="M62,1.4h477.2c33.4,0,60.7,27.1,60.7,60.7v477.2c0,33.4-27.1,60.7-60.7,60.7H62c-33.4,0-60.7-27.1-60.7-60.7
		V62.1C1.3,28.5,28.4,1.4,62,1.4z"/>
</g>
<g id="_Слой_8">
	<path d="M489,508.9H82.6c-21.1,0-34.6-27.9-24.9-51.3l51.4-121.6c4.8-11.5,14.4-18.7,24.9-18.7h406.4c21.1,0,34.6,27.9,24.9,51.3
		l-51.4,121.6C508.8,501.7,499.2,508.9,489,508.9z"/>
	<path class="st0" d="M489,413.1H82.6c-21.1,0-34.6-27.9-24.9-51.3l51.4-121.6c4.8-11.5,14.4-18.7,24.9-18.7h406.2
		c21.1,0,34.6,27.9,24.9,51.3l-51.4,121.6C508.8,406.1,499.2,413.1,489,413.1L489,413.1z"/>
	<path d="M480.4,398.9H74c-21.1,0-34.6-27.9-24.9-51.3L100.6,226c4.8-11.5,14.4-18.7,24.9-18.7h406.4c21.1,0,34.6,27.9,24.9,51.3
		l-51.4,121.6C500.3,391.7,490.7,398.9,480.4,398.9z"/>
	<path class="st0" d="M480.4,303.5H74c-21.1,0-34.6-27.9-24.9-51.3l51.4-121.6c4.8-11.5,14.4-18.7,24.9-18.7h406.2
		c21.1,0,34.6,27.9,24.9,51.3l-51.4,121.6C500.3,296.3,490.7,303.5,480.4,303.5L480.4,303.5z"/>
	<path d="M467.5,285.5H61.1c-21.1,0-34.6-27.9-24.9-51.3l51.4-121.6c4.8-11.5,14.4-18.7,24.9-18.7H519c21.1,0,34.6,27.9,24.9,51.3
		l-51.4,121.6C487.6,278.3,478,285.5,467.5,285.5z"/>
</g>
</svg>
