<?xml version="1.0" encoding="utf-8"?>
<!-- Generator: Adobe Illustrator 27.2.0, SVG Export Plug-In . SVG Version: 6.00 Build 0)  -->
<svg version="1.1" id="Слой_1" xmlns="http://www.w3.org/2000/svg" xmlns:xlink="http://www.w3.org/1999/xlink" x="0px" y="0px"
	 viewBox="0 0 600 600" style="enable-background:new 0 0 600 600;" xml:space="preserve">
<style type="text/css">
	.st0{fill:#FFFFFF;}
	.st1{fill:none;stroke:#000000;stroke-width:20;stroke-miterlimit:10;}
</style>
<g id="_Слой_3">
	<path class="st0" d="M60.8,0h478.3C572.7,0,600,27.2,600,60.8v478.3c0,33.5-27.2,60.8-60.8,60.8H60.8C27.3,600,0,572.8,0,539.2
		V60.8C0,27.2,27.2,0,60.8,0z"/>
</g>
<g id="_Слой_6">
	<circle class="st1" cx="298" cy="298.9" r="154.7"/>
	<path class="st1" d="M314.9,452.7l-8.9,38.5c-6.4,27.2-33.5,44.2-60.8,37.8l-15.3-3.6c-27.2-6.4-44.2-33.5-37.8-60.8l8.9-38.5"/>
	<path class="st1" d="M201.4,426.9l-33.7,20.8c-23.7,14.8-54.8,7.4-69.6-16.3l-8.2-13.2c-14.8-23.7-7.4-55,16.3-69.6l33.7-20.8"/>
	<path class="st1" d="M134.7,321.2l-38.5-8.9c-27.2-6.4-44.2-33.5-37.8-60.8l3.6-15.3c6.4-27.2,33.5-44.2,60.8-37.8l38.5,8.9"/>
	<path class="st1" d="M168.6,204l-20.8-33.5c-14.8-23.7-7.4-54.8,16.3-69.6l13.2-8.2c23.7-14.8,55-7.4,69.6,16.3l20.8,33.7"/>
	<path class="st1" d="M270.2,132.7l8.9-38.5C285.5,67,312.6,50,340,56.4l15.3,3.6c27.2,6.4,44.2,33.5,37.8,60.8l-8.9,38.5"/>
	<path class="st1" d="M389.3,165.5l33.5-20.8c23.7-14.8,55-7.4,69.6,16.3l8.2,13.2c14.8,23.7,7.4,54.8-16.3,69.6L451,264.7"/>
	<path class="st1" d="M462.8,272.8l38.5,8.9c27.2,6.4,44.2,33.5,37.8,60.8l-3.6,15.3c-6.4,27.2-33.5,44.2-60.8,37.8l-38.5-8.9"/>
	<path class="st1" d="M429.3,395.3l20.8,33.5c14.8,23.7,7.4,55-16.3,69.6l-13.2,8.2c-23.7,14.8-55,7.4-69.6-16.3l-21-33.5"/>
	<circle class="st1" cx="297.3" cy="299.1" r="82.5"/>
	<circle cx="297.3" cy="299.1" r="29.2"/>
	<path class="st0" d="M283.6,544.8c0,0-27.7-347.7,276.7-347.7c0,0,30.9,371.8,0,371.8C529.4,568.9,283.6,544.8,283.6,544.8z"/>
	<path d="M298.2,452.5c1-10.7,3.4-25.1,8.2-40c7.6-23.4,38.3-28.5,53.6-9.5l0,0c15,18.7,44.3,14.3,53.1-8.1l62-158.8
		c3.1-7.7,9.1-14.1,16.8-17.2c6-2.6,13.9-5.2,22.5-6.4c22.7-3.3,40.6,19.1,33.2,40.7l-97.5,285c-6.9,20.3-31.8,27.5-48.6,14.3
		l-92-72.9C301.6,473.3,297.2,463,298.2,452.5L298.2,452.5z"/>
</g>
</svg>
