<?xml version="1.0" encoding="utf-8"?>
<!-- Generator: Adobe Illustrator 27.2.0, SVG Export Plug-In . SVG Version: 6.00 Build 0)  -->
<svg version="1.1" id="Слой_1" xmlns="http://www.w3.org/2000/svg" xmlns:xlink="http://www.w3.org/1999/xlink" x="0px" y="0px"
	 viewBox="0 0 600 600" style="enable-background:new 0 0 600 600;" xml:space="preserve">
<style type="text/css">
	.st0{fill:#FFFFFF;}
	.st1{fill:none;stroke:#000000;stroke-width:30;stroke-linecap:round;stroke-miterlimit:10;}
</style>
<g id="_Слой_3">
	<path class="st0" d="M157.4,107h278.3c19.5,0,35.4,15.8,35.4,35.4v278.3c0,19.5-15.8,35.4-35.4,35.4H157.4
		c-19.5,0-35.4-15.8-35.4-35.4V142.4C122,122.8,137.8,107,157.4,107z"/>
</g>
<g id="_Слой_4">
	<path class="st1" d="M169,357l57.8-144.4c0.8-2,3.6-1.9,4.3,0.1L284.8,357"/>
	<line class="st1" x1="200.1" y1="289" x2="256" y2="288.9"/>
	<path class="st1" d="M319.7,357V207c0,0,57.3-8,57.3,40s-57.3,42.1-57.3,42.1"/>
	<line class="st1" x1="413" y1="209" x2="413" y2="359"/>
</g>
</svg>
