<?xml version="1.0" encoding="utf-8"?>
<!-- Generator: Adobe Illustrator 27.2.0, SVG Export Plug-In . SVG Version: 6.00 Build 0)  -->
<svg version="1.1" id="Слой_1" xmlns="http://www.w3.org/2000/svg" xmlns:xlink="http://www.w3.org/1999/xlink" x="0px" y="0px"
	 viewBox="0 0 600 600" style="enable-background:new 0 0 600 600;" xml:space="preserve">
<style type="text/css">
	.st0{fill:#FFFFFF;}
	.st1{fill:none;stroke:#000000;stroke-width:30;stroke-linecap:round;stroke-miterlimit:10;}
	.st2{fill:none;stroke:#000000;stroke-width:30;stroke-miterlimit:10;}
	.st3{fill:none;stroke:#000000;stroke-width:20;stroke-linecap:round;stroke-miterlimit:10;}
	.st4{fill:none;stroke:#000000;stroke-width:10;stroke-linecap:round;stroke-linejoin:round;}
	.st5{fill:none;stroke:#000000;stroke-width:10;stroke-linecap:round;stroke-miterlimit:10;}
	.st6{fill:none;stroke:#000000;stroke-width:8;stroke-linecap:round;stroke-miterlimit:10;}
</style>
<g id="_Слой_3">
	<path class="st0" d="M157.4,107h278.3c19.5,0,35.4,15.8,35.4,35.4v278.3c0,19.5-15.8,35.4-35.4,35.4H157.4
		c-19.5,0-35.4-15.8-35.4-35.4V142.4C122,122.8,137.8,107,157.4,107z"/>
</g>
<g id="_Слой_7">
	<path class="st1" d="M228,402l61.7-174.9c1.6-4.4,8-4.1,9.1,0.5L340.4,402"/>
	<line class="st2" x1="258.3" y1="316" x2="319.8" y2="316"/>
	<line class="st1" x1="386" y1="402" x2="386" y2="224"/>
	<path class="st3" d="M260,166c-58.7,1.9-58,60-60,65"/>
	<polyline class="st4" points="198,236 174,236 174,209 202,209 201.7,209.8 177.6,195.6 193,171 212,184 201,159 223,148 
		235.2,169.3 235.2,142 265.1,142 265.1,164 	"/>
	<path class="st5" d="M265,184.4c-46.7,1.5-46.2,47.8-47.8,51.7"/>
	<path class="st6" d="M265,200c-31,1.1-30.6,34.1-31.6,37"/>
</g>
</svg>
