<?xml version="1.0" encoding="UTF-8"?>
<svg id="_Слой_1" data-name="Слой 1" xmlns="http://www.w3.org/2000/svg" viewBox="0 0 1154.37 1115">
  <defs>
    <style>
      .cls-1 {
        fill: #00b200;
      }

      .cls-2 {
        fill: #002d00;
      }

      .cls-3 {
        fill: #005a00;
        fill-rule: evenodd;
      }
    </style>
  </defs>
  <ellipse class="cls-2" cx="577.18" cy="557.5" rx="577.18" ry="557.5"/>
  <path class="cls-3" d="m214.32,991.02L735.91,21.35s129.01,41.62,154.56,67.85l-534.79,983.25s-82.59-33.86-141.36-81.43Z"/>
  <path class="cls-3" d="m361.32,555.71s-7.53,142.45-178.96,142.45c-71.44,0-84.86-52.9-84.86-52.9,0,0,77.78-11.66,84.86-87.76"/>
  <path class="cls-1" d="m2.51,535.36c15.96-90.18,57.36-189.36,120.59-256.54,87.47-94.96,230.35-120.07,334.33-36.2,63.16,50.67,102.64,123.39,131.92,196.71,9.23,22.9,16.9,46.83,25.22,69.81,2.28,6.09,3.98,12.65,5.71,18.66,8.34,24.66,14.2,51.42,20.58,75.3,18.39,71.08,47.3,135.77,120.84,162.04,36.49,13.24,76.27,15.86,114.86,14.18,52.61-2.39,105.83-14.98,150.57-43.55,53.77-33.63,91.39-88.93,111.1-148.76,4.45-13.19,8.09-26.76,10.84-40.46.93-4.59,1.73-9.21,2.35-13.87.46,9.41.04,18.88-.72,28.31-9.31,106.65-69.46,197.12-169.67,238.38-38.94,16.15-80.92,24.4-122.88,27.12-119.17,8.29-210.94-37.47-255.96-151.3-11.33-27.88-18.75-55.67-26.13-84.04-3.76-14.42-7.18-28.12-11.88-41.82-2.65-7.75-4.13-15.46-7.07-22.71-18.85-55.92-38.64-111.83-69.17-162.36-38.85-65.75-97.34-122.77-176.93-124.75-25.46-.9-50.9,2.51-75.18,10.48C118.41,288.88,42.55,424.85,2.51,535.36h0Z"/>
  <path class="cls-1" d="m335.12,619.03c34.94-34.97,34.94-91.67,0-126.64-34.95-34.97-91.6-34.97-126.54,0-34.95,34.97-34.95,91.68,0,126.64,34.94,34.97,91.6,34.97,126.54,0Z"/>
  <path class="cls-3" d="m786.38,555.71s7.53-142.45,178.96-142.45c71.44,0,84.86,52.9,84.86,52.9,0,0-77.78,11.66-84.86,87.76"/>
  <path class="cls-1" d="m812.58,492.39c-34.94,34.97-34.94,91.67,0,126.64,34.95,34.97,91.6,34.97,126.54,0,34.95-34.97,34.95-91.68,0-126.64-34.94-34.97-91.6-34.97-126.54,0Z"/>
</svg>